mtllib ip_gen.mtl

v 0.126280 0.149320 0.873720
v 0.873720 0.149320 0.873720
v 0.791700 0.547430 0.791700
v 0.208300 0.547430 0.791700
v 0.873720 0.149320 0.126280
v 0.791700 0.547430 0.208300
v 0.126280 0.149320 0.126280
v 0.208300 0.547430 0.208300
v 0.000000 0.000000 1.000000
v 0.000000 0.000000 0.000000
v 1.000000 0.000000 0.000000
v 1.000000 0.000000 1.000000
v 1.000000 0.149320 1.000000
v 0.000000 0.149320 1.000000
v 1.000000 0.149320 0.000000
v 0.000000 0.149320 0.000000
v 0.671410 0.694600 0.400870
v 0.871970 0.694680 0.200300
v 0.801260 0.694680 0.129590
v 0.600700 0.694600 0.330150
v 0.671410 0.143980 0.400860
v 0.600700 0.143980 0.330150
v 0.945550 0.399450 0.126730
v 0.945220 0.143980 0.127050
v 0.874510 0.143980 0.056340
v 0.874840 0.399450 0.056020
v 0.400870 0.694600 0.328590
v 0.200300 0.694680 0.128030
v 0.129590 0.694680 0.198740
v 0.330150 0.694600 0.399300
v 0.400860 0.143980 0.328590
v 0.330150 0.143980 0.399300
v 0.126730 0.399450 0.054450
v 0.127050 0.143980 0.054780
v 0.056340 0.143980 0.125490
v 0.056020 0.399450 0.125160
v 0.328590 0.694600 0.599130
v 0.128020 0.694680 0.799700
v 0.198740 0.694680 0.870410
v 0.399300 0.694600 0.669850
v 0.328590 0.143980 0.599130
v 0.399300 0.143980 0.669850
v 0.054450 0.399450 0.873270
v 0.054780 0.143980 0.872950
v 0.125490 0.143980 0.943660
v 0.125160 0.399450 0.943980
v 0.599140 0.694600 0.671410
v 0.799700 0.694680 0.871970
v 0.870410 0.694680 0.801260
v 0.669850 0.694600 0.600700
v 0.599140 0.143980 0.671410
v 0.669850 0.143980 0.600700
v 0.873270 0.399450 0.945550
v 0.872950 0.143980 0.945220
v 0.943660 0.143980 0.874510
v 0.943980 0.399450 0.874840
v 0.379940 0.360310 0.620060
v 0.620060 0.360310 0.620060
v 0.620060 0.974970 0.620060
v 0.379940 0.974970 0.620060
v 0.620060 0.360310 0.379940
v 0.620060 0.974980 0.379940
v 0.379940 0.360310 0.379940
v 0.379940 0.974970 0.379940
v 0.329050 0.910080 0.670950
v 0.329050 0.910080 0.329050
v 0.670950 0.910080 0.329050
v 0.670950 0.910080 0.670950
v 0.670950 0.983350 0.670950
v 0.329050 0.983350 0.670950
v 0.670950 0.983360 0.329050
v 0.329050 0.983350 0.329050

vt 0.024500 0.386800
vt 0.447100 0.386800
vt 0.400700 0.611900
vt 0.070900 0.611900
vt 0.393900 0.360300
vt 0.064100 0.360300
vt 0.064100 0.030500
vt 0.393900 0.030500
vt 0.968000 0.025400
vt 0.968000 0.498700
vt 0.494600 0.498700
vt 0.494600 0.025400
vt 0.494600 0.227900
vt 0.968000 0.227900
vt 0.968000 0.296200
vt 0.494600 0.296200
vt 0.115200 0.635900
vt 0.294700 0.635900
vt 0.294700 0.692500
vt 0.115200 0.692500
vt 0.404900 0.692500
vt 0.070800 0.692500
vt 0.070800 0.635900
vt 0.404900 0.635900
vt 0.249900 0.635900
vt 0.249900 0.692500
vt 0.411000 0.979500
vt 0.411000 0.802000
vt 0.231700 0.736600
vt 0.076200 0.736600
vt 0.076200 0.979500
vt 0.523500 0.545700
vt 0.681500 0.545700
vt 0.681500 0.965500
vt 0.523500 0.965500
vt 0.958500 0.736800
vt 0.958500 0.978400
vt 0.717000 0.978400
vt 0.717000 0.736800
vt 0.718000 0.657900
vt 0.958500 0.657900
vt 0.958500 0.709500
vt 0.718000 0.709500

vn 0.000000 0.201786 0.979430
vn 0.979430 0.201786 0.000000
vn 0.000000 0.201800 -0.979400
vn -0.979430 0.201786 0.000000
vn -0.631749 0.775173 0.000000
vn 0.000000 1.000000 0.000000
vn 0.000000 -1.000000 0.000000
vn 0.000000 0.000000 1.000000
vn 1.000000 0.000000 0.000000
vn 0.000000 0.000000 -1.000000
vn -1.000000 0.000000 0.000000
vn -0.707107 0.707107 0.000000
vn -0.707132 -0.000006 0.707082
vn 0.707106 -0.001799 -0.707106
vn 0.666900 0.332399 -0.666900
vn -0.707098 0.000001 -0.707116
vn 0.707108 -0.000003 0.707106
vn -0.707106 -0.001799 -0.707106
vn -0.666900 0.332399 -0.666900
vn 0.707106 -0.000003 -0.707108
vn -0.707106 -0.001799 0.707106
vn -0.666879 0.332389 0.666926
vn 0.707106 -0.001799 0.707106
vn 0.666900 0.332399 0.666900

g Base
s 8
usemtl ip_gen
f 1/1/1 2/2/1 3/3/1
f 1/1/1 3/3/1 4/4/1
s 16
f 2/1/2 5/2/2 6/3/2
f 2/1/2 6/3/2 3/4/2
s 32
f 5/1/3 7/2/3 8/3/3
f 5/1/3 8/3/3 6/4/3
s 31
f 7/1/4 1/2/4 4/3/5
f 7/1/4 4/3/5 8/4/5
f 6/5/6 8/6/5 4/7/5
f 6/5/6 4/7/5 3/8/6
s 2
f 9/9/7 10/10/7 11/11/7
f 9/9/7 11/11/7 12/12/7
s 8
f 9/13/8 12/14/8 13/15/8
f 9/13/8 13/15/8 14/16/8
s 16
f 12/13/9 11/14/9 15/15/9
f 12/13/9 15/15/9 13/16/9
s 32
f 11/13/10 10/14/10 16/15/10
f 11/13/10 16/15/10 15/16/10
s 31
f 10/13/11 9/14/11 14/15/12
f 10/13/11 14/15/12 16/16/12
f 15/10/6 16/11/12 14/12/12
f 15/10/6 14/12/12 13/9/6
s 1
f 17/17/6 18/18/6 19/19/6
f 17/17/6 19/19/6 20/20/6
s 4
f 21/21/13 17/22/13 20/23/13
f 21/21/13 20/23/13 22/24/13
f 23/25/14 24/24/14 25/21/14
f 23/25/14 25/21/14 26/26/14
s 2
f 18/23/15 23/25/15 26/26/15
f 18/23/15 26/26/15 19/22/15
s 16
f 20/27/16 19/28/16 26/29/16
f 20/27/16 26/29/16 25/30/16
f 20/27/16 25/30/16 22/31/16
f 17/27/17 21/31/17 24/30/17
f 17/27/17 24/30/17 23/29/17
f 17/27/17 23/29/17 18/28/17
s 1
f 27/17/6 28/18/6 29/19/6
f 27/17/6 29/19/6 30/20/6
s 4
f 31/21/17 27/22/17 30/23/17
f 31/21/17 30/23/17 32/24/17
f 33/25/18 34/24/18 35/21/18
f 33/25/18 35/21/18 36/26/18
s 2
f 28/23/19 33/25/19 36/26/19
f 28/23/19 36/26/19 29/22/19
s 16
f 30/27/13 29/28/13 36/29/13
f 30/27/13 36/29/13 35/30/13
f 30/27/13 35/30/13 32/31/13
f 27/27/20 31/31/20 34/30/20
f 27/27/20 34/30/20 33/29/20
f 27/27/20 33/29/20 28/28/20
s 1
f 37/17/6 38/18/6 39/19/6
f 37/17/6 39/19/6 40/20/6
s 4
f 41/21/20 37/22/20 40/23/20
f 41/21/20 40/23/20 42/24/20
f 43/25/21 44/24/21 45/21/21
f 43/25/21 45/21/21 46/26/21
s 2
f 38/23/22 43/25/22 46/26/22
f 38/23/22 46/26/22 39/22/22
s 16
f 40/27/17 39/28/17 46/29/17
f 40/27/17 46/29/17 45/30/17
f 40/27/17 45/30/17 42/31/17
f 37/27/16 41/31/16 44/30/16
f 37/27/16 44/30/16 43/29/16
f 37/27/16 43/29/16 38/28/16
s 1
f 47/17/6 48/18/6 49/19/6
f 47/17/6 49/19/6 50/20/6
s 4
f 51/21/16 47/22/16 50/23/16
f 51/21/16 50/23/16 52/24/16
f 53/25/23 54/24/23 55/21/23
f 53/25/23 55/21/23 56/26/23
s 2
f 48/23/24 53/25/24 56/26/24
f 48/23/24 56/26/24 49/22/24
s 16
f 50/27/20 49/28/20 56/29/20
f 50/27/20 56/29/20 55/30/20
f 50/27/20 55/30/20 52/31/20
f 47/27/13 51/31/13 54/30/13
f 47/27/13 54/30/13 53/29/13
f 47/27/13 53/29/13 48/28/13

g Core
s 8
f 57/32/8 58/33/8 59/34/8
f 57/32/8 59/34/8 60/35/8
s 16
f 58/32/9 61/33/9 62/34/9
f 58/32/9 62/34/9 59/35/9
s 32
f 61/32/10 63/33/10 64/34/10
f 61/32/10 64/34/10 62/35/10
s 31
f 63/32/11 57/33/11 60/34/11
f 63/32/11 60/34/11 64/35/11
s 2
f 65/36/7 66/37/7 67/38/7
f 65/36/7 67/38/7 68/39/7
s 8
f 65/40/8 68/41/8 69/42/8
f 65/40/8 69/42/8 70/43/8
s 16
f 68/40/9 67/41/9 71/42/9
f 68/40/9 71/42/9 69/43/9
s 32
f 67/40/10 66/41/10 72/42/10
f 67/40/10 72/42/10 71/43/10
s 31
f 66/40/11 65/41/11 70/42/12
f 66/40/11 70/42/12 72/43/12
f 71/37/6 72/38/12 70/39/12
f 71/37/6 70/39/12 69/36/6
