mtllib matrix.mtl

v 0.738200 0.246100 0.015700
v 0.985800 0.246100 0.261800
v 0.985800 0.000000 0.261800
v 0.738200 0.000000 0.015700
v 0.246100 0.246100 0.015700
v 0.246100 0.246100 0.231700
v 0.443600 0.246100 0.231700
v 0.745100 0.246100 0.753900
v 0.985800 0.246100 0.753900
v 0.000000 0.000000 0.015700
v 0.985800 0.000000 1.000000
v 0.000800 0.000000 1.000000
v 0.000000 0.246100 0.015700
v 0.985800 0.246100 1.000000
v 0.984300 0.246100 1.738200
v 0.738200 0.246100 1.985800
v 0.738200 0.000000 1.985800
v 0.984300 0.000000 1.738200
v 0.984300 0.246100 1.246100
v 0.768300 0.246100 1.246100
v 0.768300 0.246100 1.443600
v 0.246100 0.246100 1.745100
v 0.246100 0.246100 1.985800
v 0.984300 0.000000 1.000000
v 0.000000 0.000000 1.985800
v 0.000000 0.000000 1.000800
v 0.984300 0.246100 1.000000
v 0.000000 0.246100 1.985800
v -0.984300 0.246100 0.261800
v -0.738200 0.246100 0.014200
v -0.738200 0.000000 0.014200
v -0.984300 0.000000 0.261800
v -0.984300 0.246100 0.753900
v -0.768300 0.246100 0.753900
v -0.768300 0.246100 0.556400
v -0.246100 0.246100 0.254900
v -0.246100 0.246100 0.014200
v -0.984300 0.000000 1.000000
v 0.000000 0.000000 0.014200
v 0.000000 0.000000 0.999200
v -0.984300 0.246100 1.000000
v 0.000000 0.246100 0.014200
v -0.738200 0.246100 1.984300
v -0.985800 0.246100 1.738200
v -0.985800 0.000000 1.738200
v -0.738200 0.000000 1.984300
v -0.246100 0.246100 1.984300
v -0.246100 0.246100 1.768300
v -0.443600 0.246100 1.768300
v -0.745100 0.246100 1.246100
v -0.985800 0.246100 1.246100
v 0.000000 0.000000 1.984300
v -0.985800 0.000000 1.000000
v -0.000800 0.000000 1.000000
v 0.000000 0.246100 1.984300
v -0.985800 0.246100 1.000000
v 0.745100 0.639800 0.753900
v 0.984300 0.639800 0.753900
v 0.984300 0.246100 0.753900
v 0.443600 0.639800 0.231700
v 0.246100 0.639800 0.231700
v 0.246100 0.639800 0.015700
v -0.246100 0.246100 0.015700
v -0.246100 0.639800 0.015700
v 0.000000 0.639800 0.015700
v -0.246100 0.246100 0.231700
v -0.246100 0.639800 0.231700
v 0.716700 0.738200 0.803100
v 0.935000 0.738200 0.803100
v 0.415200 0.738200 0.280900
v 0.196900 0.738200 0.280900
v 0.196900 0.738200 0.065000
v -0.196900 0.738200 0.065000
v 0.000000 0.738200 0.065000
v -0.196900 0.738200 0.280900
v 0.295300 0.738200 0.704700
v -0.197100 0.738200 0.704700
v 0.000000 0.738200 0.704700
v 0.295300 0.738200 0.803600
v 0.246100 0.639800 1.745100
v 0.246100 0.639800 1.984300
v 0.246100 0.246100 1.984300
v 0.768300 0.639800 1.443600
v 0.768300 0.639800 1.246100
v 0.984300 0.639800 1.246100
v 0.984300 0.639800 1.000000
v 0.984300 0.246100 1.000000
v 0.768300 0.246100 0.753900
v 0.768300 0.639800 0.753900
v 0.196900 0.738200 1.716700
v 0.196900 0.738200 1.935000
v 0.719100 0.738200 1.415200
v 0.719100 0.738200 1.196900
v 0.935000 0.738200 1.196900
v 0.935000 0.738200 1.000000
v 0.719100 0.738200 0.803100
v 0.295300 0.738200 1.295300
v 0.295300 0.738200 0.802900
v 0.295300 0.738200 1.000000
v 0.196400 0.738200 1.295300
v -0.246100 0.639800 0.254900
v -0.768300 0.639800 0.556400
v -0.768300 0.639800 0.753900
v -0.984300 0.639800 0.753900
v -0.984300 0.246100 1.246100
v -0.984300 0.639800 1.246100
v -0.984300 0.639800 1.000000
v -0.768300 0.246100 1.246100
v -0.768300 0.639800 1.246100
v -0.196900 0.738200 0.283300
v -0.719100 0.738200 0.584800
v -0.719100 0.738200 0.803100
v -0.935000 0.738200 0.803100
v -0.935000 0.738200 1.196800
v -0.935000 0.738200 1.000000
v -0.719100 0.738200 1.196800
v -0.295300 0.738200 0.704700
v -0.295300 0.738200 1.197100
v -0.295300 0.738200 1.000000
v -0.196400 0.738200 0.704700
v -0.745100 0.639800 1.246100
v -0.443600 0.639800 1.768300
v -0.246100 0.639800 1.768300
v -0.246100 0.639800 1.984300
v 0.000000 0.639800 1.984300
v 0.246100 0.246100 1.768300
v 0.246100 0.639800 1.768300
v -0.716700 0.738200 1.196900
v -0.935000 0.738200 1.196900
v -0.415200 0.738200 1.719100
v -0.196900 0.738200 1.719100
v -0.196900 0.738200 1.935000
v 0.000000 0.738200 1.935000
v 0.196900 0.738200 1.719100
v -0.295300 0.738200 1.295300
v 0.197100 0.738200 1.295300
v 0.000000 0.738200 1.295300
v -0.295300 0.738200 1.196400
v 0.317000 0.739500 0.698700
v -0.317000 0.739500 0.698700
v 0.000000 1.056500 1.000000
v -0.317000 0.739500 1.301300
v 0.317000 0.739500 1.301300
v -0.777900 2.009000 1.246100
v -0.777900 1.270700 1.246100
v -0.679500 1.270700 1.246100
v -0.777900 2.747500 1.245800
v -0.679500 2.747500 1.245800
v -0.777900 1.270800 0.754000
v -0.679500 1.270800 0.754000
v -0.679500 1.024700 1.000000
v -0.777900 1.024700 1.000000
v -0.777800 2.747700 0.753800
v -0.679500 2.747700 0.753900
v -0.679500 2.993200 1.000000
v -0.777900 2.993200 1.000000
v 0.602079 2.009000 1.550631
v 0.602079 1.270700 1.550631
v 0.552879 1.270700 1.465414
v 0.601819 2.747500 1.550781
v 0.552619 2.747500 1.465564
v 0.175908 1.270800 1.796681
v 0.126708 1.270800 1.711464
v 0.339750 1.024700 1.588464
v 0.388950 1.024700 1.673681
v 0.175685 2.747700 1.796695
v 0.126621 2.747700 1.711514
v 0.339750 2.993200 1.588464
v 0.388950 2.993200 1.673681
v 0.175821 2.009000 0.203269
v 0.175821 1.270700 0.203269
v 0.126621 1.270700 0.288486
v 0.176081 2.747500 0.203419
v 0.126881 2.747500 0.288636
v 0.601992 1.270800 0.449319
v 0.552792 1.270800 0.534536
v 0.339750 1.024700 0.411536
v 0.388950 1.024700 0.326319
v 0.602115 2.747700 0.449505
v 0.552879 2.747700 0.534586
v 0.339750 2.993200 0.411536
v 0.388950 2.993200 0.326319

vt 0.370400 0.170400
vt 0.181100 0.170400
vt 0.181100 0.031300
vt 0.370400 0.031300
vt 0.014700 0.589300
vt 0.014700 0.483700
vt 0.111100 0.483700
vt 0.255000 0.589300
vt 0.258400 0.228100
vt 0.375900 0.468900
vt 0.375900 0.228100
vt 0.499600 0.603500
vt 0.499600 0.731200
vt 0.542300 0.774000
vt 0.670200 0.774000
vt 0.670200 0.603600
vt 0.022700 0.259200
vt 0.022700 0.017400
vt 0.147500 0.017400
vt 0.022700 0.380100
vt 0.147500 0.380100
vt 0.147500 0.016000
vt 0.022700 0.137100
vt 0.022700 0.016000
vt 0.620700 0.787800
vt 0.620700 0.987700
vt 0.502600 0.987700
vt 0.502600 0.787800
vt 0.684700 0.787800
vt 0.684700 0.987700
vt 0.402600 0.987700
vt 0.402600 0.787800
vt 0.563700 0.787800
vt 0.563700 0.987700
vt 0.447200 0.987700
vt 0.447200 0.787800
vt 0.573800 0.787800
vt 0.573800 0.987700
vt 0.493800 0.987700
vt 0.493800 0.787800
vt 0.666200 0.138000
vt 0.666200 0.328800
vt 0.533200 0.328800
vt 0.533200 0.138000
vt 0.400200 0.328800
vt 0.400200 0.138000
vt 0.616800 0.787800
vt 0.616800 0.987700
vt 0.508000 0.987700
vt 0.508000 0.787800
vt 0.602600 0.018600
vt 0.617700 0.074900
vt 0.493700 0.074900
vt 0.466800 0.018600
vt 0.717600 0.018600
vt 0.688700 0.074900
vt 0.392000 0.074900
vt 0.420900 0.018600
vt 0.667100 0.018600
vt 0.694100 0.074900
vt 0.570100 0.074900
vt 0.554900 0.018600
vt 0.623500 0.018600
vt 0.594600 0.074900
vt 0.471900 0.074900
vt 0.500900 0.018600
vt 0.569000 0.018600
vt 0.708700 0.018600
vt 0.679800 0.074900
vt 0.568000 0.074900
vt 0.456100 0.074900
vt 0.429200 0.018600
vt 0.587700 0.018600
vt 0.615100 0.074900
vt 0.494800 0.074900
vt 0.483800 0.595900
vt 0.329200 0.868100
vt 0.217200 0.868100
vt 0.267700 0.647200
vt 0.217200 0.980600
vt 0.116300 0.980600
vt 0.015300 0.980600
vt 0.015300 0.868100
vt 0.015200 0.647200
vt 0.116300 0.647200
vt 0.267700 0.595600
vt 0.329300 0.565700
vt 0.676700 0.565700
vt 0.502700 0.357300
vt 0.749000 0.465500
vt 0.749000 0.840500
vt 0.699000 0.840500
vt 0.749000 0.090500
vt 0.699000 0.090500
vt 0.748800 0.645400
vt 0.698800 0.645400
vt 0.698800 0.520400
vt 0.748800 0.520400
vt 0.701100 0.520400
vt 0.751100 0.520400
vt 0.761600 0.213500
vt 0.875100 0.106200
vt 0.988700 0.213400
vt 0.988700 0.535100
vt 0.988600 0.856900
vt 0.875100 0.964000
vt 0.761600 0.856800
vt 0.699200 0.512700
vt 0.749000 0.512700
vt 0.749100 0.637300
vt 0.699200 0.637300

vn 0.704955 0.000000 -0.709252
vn 0.000000 1.000000 0.000000
vn 0.000000 -1.000000 0.000000
vn 0.000000 0.000000 -1.000000
vn 1.000000 0.000000 0.000000
vn 0.709252 0.000000 0.704955
vn 0.000000 0.000000 1.000000
vn -0.709252 0.000000 -0.704955
vn -1.000000 0.000000 0.000000
vn -0.704955 0.000000 0.709252
vn 0.447214 0.000000 -0.894427
vn 0.894427 0.000000 -0.447214
vn 0.866020 0.000000 -0.500010
vn -0.447214 0.000000 -0.894427
vn -0.894427 0.000000 -0.447214
vn 0.000000 0.447213 -0.894427
vn 0.577037 0.577741 -0.577272
vn 0.774606 0.447180 -0.447231
vn 0.894427 0.447213 0.000000
vn -0.577272 0.577741 -0.577037
vn -0.894427 0.447213 0.000000
vn 0.894427 0.000000 0.447214
vn 0.447214 0.000000 0.894427
vn 0.500010 0.000000 0.866020
vn 0.577272 0.577741 0.577037
vn 0.447231 0.447180 0.774606
vn 0.000000 0.447213 0.894427
vn -0.500010 0.000000 -0.866020
vn -0.894427 0.000000 0.447214
vn -0.447214 0.000000 0.894427
vn -0.447231 0.447180 -0.774606
vn -0.577037 0.577741 0.577272
vn -0.866020 0.000000 0.500010
vn -0.774606 0.447180 0.447231
vn 0.000000 0.688930 -0.724828
vn -0.707107 0.707107 0.000000
vn 0.000000 0.688930 0.724828
vn 0.707107 0.707107 0.000000
vn -0.831830 0.000132 0.555031
vn -0.734524 -0.259746 0.626903
vn 0.396709 -0.280025 0.874190
vn -0.475440 0.336865 0.812699
vn 0.851455 0.200788 0.484467
vn -0.630103 -0.297102 -0.717427
vn 0.851442 -0.200665 -0.484541
vn 0.408248 -0.865967 -0.288851
vn -0.408248 -0.866084 0.288499
vn -0.851342 0.200988 -0.484582
vn 0.476391 0.336964 -0.812100
vn 0.408055 0.866084 0.288773
vn -0.407816 0.866469 -0.287955
vn 0.896586 0.000131 0.442870
vn 0.910175 -0.259746 0.322665
vn 0.558716 -0.280025 -0.780655
vn 0.941538 0.336865 0.005394
vn -0.006167 0.200788 -0.979615
vn -0.306258 -0.297102 0.904398
vn -0.845346 -0.200665 -0.495099
vn -0.454277 -0.865967 -0.209128
vn 0.453972 -0.866084 0.209304
vn 0.006011 0.200988 0.979575
vn -0.941495 0.336964 -0.006517
vn 0.046057 0.866084 -0.497772
vn -0.045468 0.866469 0.497156
vn -0.064756 0.000131 -0.997901
vn -0.175652 -0.259746 -0.949567
vn -0.955425 -0.280025 -0.093534
vn -0.466098 0.336865 -0.818092
vn -0.845288 0.200788 0.495148
vn 0.936361 -0.297102 -0.186972
vn -0.006096 -0.200665 0.979641
vn 0.046028 -0.865967 0.497979
vn -0.045724 -0.866084 -0.497803
vn 0.845332 0.200988 -0.494993
vn 0.465104 0.336964 0.818617
vn -0.454112 0.866084 0.208999
vn 0.453284 0.866469 -0.209202

g Main
s 1
usemtl matrix
f 1/1/1 2/2/1 3/3/1
f 1/1/1 3/3/1 4/4/1
s 16
f 5/5/2 6/6/2 7/7/2
f 5/5/2 7/7/2 1/8/2
f 1/8/2 7/7/2 8/9/2
f 1/8/2 8/9/2 2/10/2
f 9/11/2 2/10/2 8/9/2
f 10/12/3 4/13/3 3/14/3
f 10/12/3 3/14/3 11/15/3
f 10/12/3 11/15/3 12/16/3
s 4
f 5/17/4 1/18/4 4/19/4
f 5/17/4 4/19/4 13/20/4
f 13/20/4 4/19/4 10/21/4
f 11/22/5 3/21/5 2/20/5
f 11/22/5 2/20/5 9/23/5
f 11/22/5 9/23/5 14/24/5
s 1
f 15/1/6 16/2/6 17/3/6
f 15/1/6 17/3/6 18/4/6
s 16
f 19/5/2 20/6/2 21/7/2
f 19/5/2 21/7/2 15/8/2
f 15/8/2 21/7/2 22/9/2
f 15/8/2 22/9/2 16/10/2
f 23/11/2 16/10/2 22/9/2
f 24/12/3 18/13/3 17/14/3
f 24/12/3 17/14/3 25/15/3
f 24/12/3 25/15/3 26/16/3
s 4
f 19/17/5 15/18/5 18/19/5
f 19/17/5 18/19/5 27/20/5
f 27/20/5 18/19/5 24/21/5
f 25/22/7 17/21/7 16/20/7
f 25/22/7 16/20/7 23/23/7
f 25/22/7 23/23/7 28/24/7
s 1
f 29/1/8 30/2/8 31/3/8
f 29/1/8 31/3/8 32/4/8
s 16
f 33/5/2 34/6/2 35/7/2
f 33/5/2 35/7/2 29/8/2
f 29/8/2 35/7/2 36/9/2
f 29/8/2 36/9/2 30/10/2
f 37/11/2 30/10/2 36/9/2
f 38/12/3 32/13/3 31/14/3
f 38/12/3 31/14/3 39/15/3
f 38/12/3 39/15/3 40/16/3
s 4
f 33/17/9 29/18/9 32/19/9
f 33/17/9 32/19/9 41/20/9
f 41/20/9 32/19/9 38/21/9
f 39/22/4 31/21/4 30/20/4
f 39/22/4 30/20/4 37/23/4
f 39/22/4 37/23/4 42/24/4
s 1
f 43/1/10 44/2/10 45/3/10
f 43/1/10 45/3/10 46/4/10
s 16
f 47/5/2 48/6/2 49/7/2
f 47/5/2 49/7/2 43/8/2
f 43/8/2 49/7/2 50/9/2
f 43/8/2 50/9/2 44/10/2
f 51/11/2 44/10/2 50/9/2
f 52/12/3 46/13/3 45/14/3
f 52/12/3 45/14/3 53/15/3
f 52/12/3 53/15/3 54/16/3
s 4
f 47/17/7 43/18/7 46/19/7
f 47/17/7 46/19/7 55/20/7
f 55/20/7 46/19/7 52/21/7
f 53/22/9 45/21/9 44/20/9
f 53/22/9 44/20/9 51/23/9
f 53/22/9 51/23/9 56/24/9
s 25
f 8/25/4 57/26/4 58/27/11
f 8/25/4 58/27/11 59/28/12
s 17
f 7/29/13 60/30/13 57/31/13
f 7/29/13 57/31/13 8/32/13
s 31
f 6/33/4 61/34/4 60/35/4
f 6/33/4 60/35/4 7/36/4
s 29
f 5/37/5 62/38/5 61/39/5
f 5/37/5 61/39/5 6/40/5
s 25
f 63/41/14 64/42/15 65/43/4
f 63/41/14 65/43/4 13/44/4
f 13/44/4 65/43/4 62/45/4
f 13/44/4 62/45/4 5/46/4
s 17
f 66/47/9 67/48/9 64/49/9
f 66/47/9 64/49/9 63/50/9
s 8
f 57/51/16 68/52/16 69/53/17
f 57/51/16 69/53/17 58/54/17
s 16
f 60/55/18 70/56/18 68/57/18
f 60/55/18 68/57/18 57/58/18
s 2
f 61/59/16 71/60/16 70/61/16
f 61/59/16 70/61/16 60/62/16
s 4
f 62/63/19 72/64/19 71/65/19
f 62/63/19 71/65/19 61/66/19
s 8
f 65/67/16 64/68/20 73/69/20
f 65/67/16 73/69/20 74/70/16
f 65/67/16 74/70/16 72/71/16
f 65/67/16 72/71/16 62/72/16
s 16
f 67/73/21 75/74/21 73/75/21
f 67/73/21 73/75/21 64/54/21
s 1
f 68/76/2 70/77/2 71/78/2
f 68/76/2 71/78/2 76/79/2
f 71/78/2 72/80/2 74/81/2
f 71/78/2 74/81/2 76/79/2
f 74/81/2 73/82/2 75/83/2
f 74/81/2 75/83/2 77/84/2
f 74/81/2 77/84/2 78/85/2
f 74/81/2 78/85/2 76/79/2
f 68/76/2 76/79/2 79/86/2
s 25
f 22/25/5 80/26/5 81/27/22
f 22/25/5 81/27/22 82/28/23
s 17
f 21/29/24 83/30/24 80/31/24
f 21/29/24 80/31/24 22/32/24
s 31
f 20/33/5 84/34/5 83/35/5
f 20/33/5 83/35/5 21/36/5
s 29
f 19/37/7 85/38/7 84/39/7
f 19/37/7 84/39/7 20/40/7
s 25
f 59/41/12 58/42/11 86/43/5
f 59/41/12 86/43/5 87/44/5
f 87/44/5 86/43/5 85/45/5
f 87/44/5 85/45/5 19/46/5
s 17
f 88/47/4 89/48/4 58/49/4
f 88/47/4 58/49/4 59/50/4
s 8
f 80/51/19 90/52/19 91/53/25
f 80/51/19 91/53/25 81/54/25
s 16
f 83/55/26 92/56/26 90/57/26
f 83/55/26 90/57/26 80/58/26
s 2
f 84/59/19 93/60/19 92/61/19
f 84/59/19 92/61/19 83/62/19
s 4
f 85/63/27 94/64/27 93/65/27
f 85/63/27 93/65/27 84/66/27
s 8
f 86/67/19 58/68/17 69/69/17
f 86/67/19 69/69/17 95/70/19
f 86/67/19 95/70/19 94/71/19
f 86/67/19 94/71/19 85/72/19
s 16
f 89/73/16 96/74/16 69/75/16
f 89/73/16 69/75/16 58/54/16
s 1
f 90/76/2 92/77/2 93/78/2
f 90/76/2 93/78/2 97/79/2
f 93/78/2 94/80/2 95/81/2
f 93/78/2 95/81/2 97/79/2
f 95/81/2 69/82/2 96/83/2
f 95/81/2 96/83/2 98/84/2
f 95/81/2 98/84/2 99/85/2
f 95/81/2 99/85/2 97/79/2
f 90/76/2 97/79/2 100/86/2
s 25
f 36/25/9 101/26/9 64/27/15
f 36/25/9 64/27/15 63/28/14
s 17
f 35/29/28 102/30/28 101/31/28
f 35/29/28 101/31/28 36/32/28
s 31
f 34/33/9 103/34/9 102/35/9
f 34/33/9 102/35/9 35/36/9
s 29
f 33/37/4 104/38/4 103/39/4
f 33/37/4 103/39/4 34/40/4
s 25
f 105/41/29 106/42/30 107/43/9
f 105/41/29 107/43/9 41/44/9
f 41/44/9 107/43/9 104/45/9
f 41/44/9 104/45/9 33/46/9
s 17
f 108/47/7 109/48/7 106/49/7
f 108/47/7 106/49/7 105/50/7
s 8
f 101/51/21 110/52/21 73/53/20
f 101/51/21 73/53/20 64/54/20
s 16
f 102/55/31 111/56/31 110/57/31
f 102/55/31 110/57/31 101/58/31
s 2
f 103/59/21 112/60/21 111/61/21
f 103/59/21 111/61/21 102/62/21
s 4
f 104/63/16 113/64/16 112/65/16
f 104/63/16 112/65/16 103/66/16
s 8
f 107/67/21 106/68/32 114/69/21
f 107/67/21 114/69/21 115/70/21
f 107/67/21 115/70/21 113/71/21
f 107/67/21 113/71/21 104/72/21
s 16
f 109/73/27 116/74/27 114/75/27
f 109/73/27 114/75/27 106/54/27
s 1
f 110/76/2 111/77/2 112/78/2
f 110/76/2 112/78/2 117/79/2
f 112/78/2 113/80/2 115/81/2
f 112/78/2 115/81/2 117/79/2
f 115/81/2 114/82/2 116/83/2
f 115/81/2 116/83/2 118/84/2
f 115/81/2 118/84/2 119/85/2
f 115/81/2 119/85/2 117/79/2
f 110/76/2 117/79/2 120/86/2
s 25
f 50/25/7 121/26/7 106/27/30
f 50/25/7 106/27/30 105/28/29
s 17
f 49/29/33 122/30/33 121/31/33
f 49/29/33 121/31/33 50/32/33
s 31
f 48/33/7 123/34/7 122/35/7
f 48/33/7 122/35/7 49/36/7
s 29
f 47/37/9 124/38/9 123/39/9
f 47/37/9 123/39/9 48/40/9
s 25
f 82/41/23 81/42/22 125/43/7
f 82/41/23 125/43/7 55/44/7
f 55/44/7 125/43/7 124/45/7
f 55/44/7 124/45/7 47/46/7
s 17
f 126/47/5 127/48/5 81/49/5
f 126/47/5 81/49/5 82/50/5
s 8
f 121/51/27 128/52/27 129/53/27
f 121/51/27 129/53/27 106/54/32
s 16
f 122/55/34 130/56/34 128/57/34
f 122/55/34 128/57/34 121/58/34
s 2
f 123/59/27 131/60/27 130/61/27
f 123/59/27 130/61/27 122/62/27
s 4
f 124/63/21 132/64/21 131/65/21
f 124/63/21 131/65/21 123/66/21
s 8
f 125/67/27 81/68/25 91/69/25
f 125/67/27 91/69/25 133/70/27
f 125/67/27 133/70/27 132/71/27
f 125/67/27 132/71/27 124/72/27
s 16
f 127/73/19 134/74/19 91/75/19
f 127/73/19 91/75/19 81/54/19
s 1
f 128/76/2 130/77/2 131/78/2
f 128/76/2 131/78/2 135/79/2
f 131/78/2 132/80/2 133/81/2
f 131/78/2 133/81/2 135/79/2
f 133/81/2 91/82/2 134/83/2
f 133/81/2 134/83/2 136/84/2
f 133/81/2 136/84/2 137/85/2
f 133/81/2 137/85/2 135/79/2
f 128/76/2 135/79/2 138/86/2

g Core
s 2
f 139/87/35 140/88/35 141/89/35
s 4
f 140/87/36 142/88/36 141/89/36
s 8
f 142/87/37 143/88/37 141/89/37
s 17
f 143/87/38 139/88/38 141/89/38

g Shield

g Duplicate01

g Duplicate02
