mtllib windgen_parts.mtl

g default
v 0.000000 -1.000000 1.000000
v 1.000000 -1.000000 1.000000
v 0.000000 -0.900000 1.000000
v 1.000000 -0.900000 1.000000
v 0.000000 -0.900000 0.000000
v 1.000000 -0.900000 0.000000
v 0.000000 -1.000000 0.000000
v 1.000000 -1.000000 0.000000
vt 0.703696 0.215368
vt 0.703696 0.215368
vt 0.987356 0.031250
vt 0.987356 0.491547
vt 0.941326 0.031250
vt 0.941326 0.491547
vt 0.491548 0.491547
vt 0.031250 0.491547
vt 0.491548 0.031250
vt 0.031250 0.031250
vt 0.987366 0.031250
vt 0.987346 0.491549
vt 0.941335 0.031250
vt 0.941315 0.491547
vt 0.031250 0.031250
vt 0.491548 0.031250
vt 0.031250 0.491547
vt 0.491548 0.491547
vt 0.941326 0.491547
vt 0.941326 0.031250
vt 0.987356 0.491547
vt 0.987356 0.031250
vt 0.941326 0.491547
vt 0.941326 0.031250
vt 0.987356 0.491547
vt 0.987356 0.031250
vt 0.031256 0.660527
vt 0.031256 0.519606
vt 0.928837 0.660527
vt 0.928837 0.519606
vt 0.928837 0.519606
vt 0.928837 0.660527
vt 0.031256 0.519606
vt 0.031256 0.660527
vt 0.928837 0.519606
vt 0.928837 0.660527
vt 0.031256 0.519606
vt 0.031256 0.660527
vt 0.928837 0.519606
vt 0.928837 0.660527
vt 0.031256 0.519606
vt 0.031256 0.660527
vt 0.928837 0.519606
vt 0.928837 0.660527
vt 0.031256 0.519606
vt 0.031256 0.660527
vt 0.031250 0.660497
vt 0.031260 0.519576
vt 0.928831 0.660555
vt 0.928842 0.519637
vt 0.031256 0.660527
vt 0.031256 0.519606
vt 0.928837 0.660527
vt 0.928837 0.519606
vt 0.031256 0.660527
vt 0.031256 0.519606
vt 0.928837 0.660527
vt 0.928837 0.519606
vt 0.703696 0.031250
vt 0.833890 0.085176
vt 0.887817 0.215368
vt 0.573504 0.085176
vt 0.833890 0.345560
vt 0.519578 0.215368
vt 0.703696 0.399488
vt 0.573504 0.345560
vt 0.573504 0.085176
vt 0.703696 0.031250
vt 0.833890 0.085176
vt 0.519578 0.215368
vt 0.887817 0.215368
vt 0.573504 0.345560
vt 0.833890 0.345560
vt 0.703696 0.399488
vt 0.799049 0.927300
vt 0.430810 0.927328
vt 0.799030 0.697151
vt 0.430791 0.697177
vt 0.963512 0.932208
vt 0.963531 0.563970
vt 0.986525 0.932208
vt 0.986544 0.563970
vt 0.031250 0.697177
vt 0.399489 0.697151
vt 0.031269 0.927328
vt 0.399508 0.927300
vt 0.986544 0.563977
vt 0.986525 0.932216
vt 0.963528 0.563977
vt 0.963512 0.932216
vt 0.497448 0.987188
vt 0.497381 0.964173
vt 0.727596 0.986527
vt 0.727530 0.963512
vt 0.727592 0.964152
vt 0.727527 0.987168
vt 0.497444 0.963512
vt 0.497381 0.986525
vt 0.563971 0.452989
vt 0.586987 0.452987
vt 0.563973 0.476004
vt 0.586987 0.476002
vt 0.719355 0.476004
vt 0.719357 0.452988
vt 0.834429 0.476011
vt 0.834430 0.452996
vt 0.563973 0.452987
vt 0.586987 0.452987
vt 0.563973 0.476004
vt 0.586987 0.476004
vt 0.834422 0.452989
vt 0.834422 0.476004
vt 0.719349 0.452989
vt 0.719349 0.476004
vt 0.719349 0.452989
vt 0.834422 0.452989
vt 0.719349 0.476004
vt 0.834422 0.476004
vt 0.834422 0.476004
vt 0.719349 0.476004
vt 0.834422 0.452989
vt 0.719349 0.452989
vt 0.563973 0.452987
vt 0.586987 0.452987
vt 0.563973 0.476004
vt 0.586987 0.476004
vt 0.719349 0.476004
vt 0.719349 0.452989
vt 0.834422 0.476004
vt 0.834422 0.452989
vt 0.563973 0.452987
vt 0.586987 0.452987
vt 0.563973 0.476004
vt 0.586987 0.476004
vt 0.834429 0.452993
vt 0.834426 0.476009
vt 0.719352 0.452987
vt 0.719352 0.476002
vt 0.719349 0.452989
vt 0.834422 0.452989
vt 0.719349 0.476004
vt 0.834422 0.476004
vt 0.834422 0.476004
vt 0.719349 0.476004
vt 0.834422 0.452989
vt 0.719349 0.452989
vt 0.149140 0.963540
vt 0.149140 0.977347
vt 0.031254 0.963512
vt 0.031250 0.977324
vt 0.282472 0.963516
vt 0.282470 0.977324
vt 0.208825 0.963512
vt 0.208823 0.977319
vt 0.342009 0.977321
vt 0.342004 0.963512
vt 0.434063 0.977338
vt 0.434063 0.963527
vt 0.830331 0.789211
vt 0.830331 0.697151
vt 0.903981 0.697151
vt 0.830331 0.697151
vt 0.830331 0.789209
vt 0.903978 0.697151
vt 0.031250 0.977339
vt 0.031254 0.963531
vt 0.149136 0.977323
vt 0.149140 0.963512
vt 0.208823 0.977319
vt 0.208825 0.963512
vt 0.282470 0.977324
vt 0.282472 0.963516
vt 0.342006 0.977318
vt 0.342004 0.963512
vt 0.434066 0.977326
vt 0.434066 0.963519
vt 0.830331 0.789211
vt 0.830331 0.697151
vt 0.903981 0.697151
vt 0.830331 0.697151
vt 0.830331 0.789211
vt 0.903978 0.697151
vt 0.149154 0.963512
vt 0.149140 0.977319
vt 0.031264 0.963538
vt 0.031250 0.977347
vt 0.208823 0.977319
vt 0.208825 0.963512
vt 0.282470 0.977324
vt 0.282472 0.963516
vt 0.342004 0.977319
vt 0.342006 0.963512
vt 0.434063 0.977319
vt 0.434063 0.963512
vt 0.830331 0.789211
vt 0.830331 0.697151
vt 0.903978 0.697152
vt 0.830331 0.697151
vt 0.830331 0.789211
vt 0.903978 0.697151
vt 0.031250 0.977319
vt 0.031251 0.963512
vt 0.149144 0.977339
vt 0.149147 0.963532
vt 0.208823 0.977319
vt 0.208825 0.963512
vt 0.282470 0.977324
vt 0.282472 0.963516
vt 0.342004 0.977319
vt 0.342006 0.963512
vt 0.434066 0.977323
vt 0.434066 0.963516
vt 0.830331 0.789211
vt 0.830331 0.697151
vt 0.903978 0.697151
vt 0.830331 0.697151
vt 0.830331 0.789211
vt 0.903978 0.697151
vt 0.031250 0.977319
vt 0.031254 0.963512
vt 0.149144 0.977338
vt 0.149147 0.963527
vt 0.208823 0.977319
vt 0.208825 0.963512
vt 0.282470 0.977324
vt 0.282472 0.963516
vt 0.342004 0.977316
vt 0.342004 0.963512
vt 0.434063 0.977319
vt 0.434066 0.963514
vt 0.830331 0.789211
vt 0.830331 0.697151
vt 0.903978 0.697151
vt 0.830331 0.697151
vt 0.830331 0.789209
vt 0.903978 0.697151
vt 0.149144 0.963605
vt 0.149147 0.977414
vt 0.031250 0.963512
vt 0.031251 0.977318
vt 0.282472 0.963516
vt 0.282470 0.977324
vt 0.208825 0.963512
vt 0.208823 0.977319
vt 0.434066 0.963524
vt 0.434063 0.977334
vt 0.342006 0.963512
vt 0.342004 0.977319
vt 0.830331 0.789211
vt 0.830331 0.697151
vt 0.903978 0.697151
vt 0.830331 0.697151
vt 0.830331 0.789211
vt 0.903978 0.697151
vt 0.149175 0.963798
vt 0.149144 0.977606
vt 0.031279 0.963512
vt 0.031250 0.977318
vt 0.282472 0.963516
vt 0.282470 0.977324
vt 0.208825 0.963512
vt 0.208823 0.977319
vt 0.434069 0.963514
vt 0.434069 0.977324
vt 0.342006 0.963512
vt 0.342004 0.977321
vt 0.830331 0.789211
vt 0.830331 0.697151
vt 0.903981 0.697151
vt 0.830331 0.697151
vt 0.830331 0.789211
vt 0.903978 0.697151
vt 0.149147 0.963534
vt 0.149144 0.977345
vt 0.031251 0.963512
vt 0.031250 0.977321
vt 0.282472 0.963516
vt 0.282470 0.977324
vt 0.208825 0.963512
vt 0.208823 0.977319
vt 0.434066 0.963514
vt 0.434063 0.977324
vt 0.342006 0.963512
vt 0.342004 0.977318
vt 0.830331 0.789211
vt 0.830331 0.697151
vt 0.903981 0.697151
vt 0.830331 0.697151
vt 0.830331 0.789211
vt 0.903978 0.697151
vn 0.000000 0.000000 1.000000
vn 0.000000 0.000000 1.000000
vn 0.000000 0.000000 1.000000
vn 0.000000 0.000000 1.000000
vn 0.000000 0.000000 1.000000
vn 0.000000 0.000000 1.000000
vn 0.000000 1.000000 0.000000
vn 0.000000 1.000000 0.000000
vn 0.000000 1.000000 0.000000
vn 0.000000 1.000000 0.000000
vn 0.000000 1.000000 0.000000
vn 0.000000 1.000000 0.000000
vn 0.000000 0.000000 -1.000000
vn 0.000000 0.000000 -1.000000
vn 0.000000 0.000000 -1.000000
vn 0.000000 0.000000 -1.000000
vn 0.000000 0.000000 -1.000000
vn 0.000000 0.000000 -1.000000
vn 0.000000 -1.000000 0.000000
vn 0.000000 -1.000000 0.000000
vn 0.000000 -1.000000 0.000000
vn 0.000000 -1.000000 0.000000
vn 0.000000 -1.000000 0.000000
vn 0.000000 -1.000000 0.000000
vn 1.000000 0.000000 0.000000
vn 1.000000 0.000000 0.000000
vn 1.000000 0.000000 0.000000
vn 1.000000 0.000000 0.000000
vn 1.000000 0.000000 0.000000
vn 1.000000 0.000000 0.000000
vn -1.000000 0.000000 0.000000
vn -1.000000 0.000000 0.000000
vn -1.000000 0.000000 0.000000
vn -1.000000 0.000000 0.000000
vn -1.000000 0.000000 0.000000
vn -1.000000 0.000000 0.000000
s off
g pCube1
usemtl base
f 1/3/1 2/4/2 3/5/3
f 3/5/4 2/4/5 4/6/6
f 3/7/7 4/8/8 5/9/9
f 5/9/10 4/8/11 6/10/12
f 5/11/13 6/12/14 7/13/15
f 7/13/16 6/12/17 8/14/18
f 7/15/19 8/16/20 1/17/21
f 1/17/22 8/16/23 2/18/24
f 2/19/25 8/20/26 4/21/27
f 4/21/28 8/20/29 6/22/30
f 7/23/31 1/24/32 5/25/33
f 5/25/34 1/24/35 3/26/36
g default
v 0.782843 -0.946683 0.217157
v 0.500000 -0.946683 0.100000
v 0.217157 -0.946683 0.217157
v 0.100000 -0.946683 0.500000
v 0.217157 -0.946683 0.782843
v 0.500000 -0.946683 0.900000
v 0.782843 -0.946683 0.782843
v 0.900000 -0.946683 0.500000
v 0.782843 1.003317 0.217157
v 0.500000 1.003317 0.100000
v 0.217157 1.003317 0.217157
v 0.100000 1.003317 0.500000
v 0.217157 1.003317 0.782843
v 0.500000 1.003317 0.900000
v 0.782843 1.003317 0.782843
v 0.900000 1.003317 0.500000
v 0.500000 -0.946683 0.500000
v 0.500000 1.003317 0.500000
vn 0.382682 0.000000 -0.923880
vn 0.382682 0.000000 -0.923880
vn 0.382682 0.000000 -0.923880
vn 0.382683 0.000000 -0.923880
vn 0.382683 0.000000 -0.923880
vn 0.382683 0.000000 -0.923880
vn -0.382683 0.000000 -0.923880
vn -0.382683 0.000000 -0.923880
vn -0.382683 0.000000 -0.923880
vn -0.382683 0.000000 -0.923880
vn -0.382683 0.000000 -0.923880
vn -0.382683 0.000000 -0.923880
vn -0.923880 0.000000 -0.382683
vn -0.923880 0.000000 -0.382683
vn -0.923880 0.000000 -0.382683
vn -0.923880 0.000000 -0.382683
vn -0.923880 0.000000 -0.382683
vn -0.923880 0.000000 -0.382683
vn -0.923880 0.000000 0.382683
vn -0.923880 0.000000 0.382683
vn -0.923880 0.000000 0.382683
vn -0.923880 0.000000 0.382683
vn -0.923880 0.000000 0.382683
vn -0.923880 0.000000 0.382683
vn -0.382683 0.000000 0.923880
vn -0.382683 0.000000 0.923880
vn -0.382683 0.000000 0.923880
vn -0.382683 0.000000 0.923880
vn -0.382683 0.000000 0.923880
vn -0.382683 0.000000 0.923880
vn 0.382683 0.000000 0.923880
vn 0.382683 0.000000 0.923880
vn 0.382683 0.000000 0.923880
vn 0.382683 0.000000 0.923880
vn 0.382683 0.000000 0.923880
vn 0.382683 0.000000 0.923880
vn 0.923880 0.000000 0.382683
vn 0.923880 0.000000 0.382683
vn 0.923880 0.000000 0.382683
vn 0.923880 0.000000 0.382683
vn 0.923880 0.000000 0.382683
vn 0.923880 0.000000 0.382683
vn 0.923880 0.000000 -0.382683
vn 0.923880 0.000000 -0.382683
vn 0.923880 0.000000 -0.382683
vn 0.923880 0.000000 -0.382683
vn 0.923880 0.000000 -0.382683
vn 0.923880 0.000000 -0.382683
vn 0.000000 -1.000000 0.000000
vn 0.000000 -1.000000 0.000000
vn 0.000000 -1.000000 0.000000
vn 0.000000 -1.000000 0.000000
vn 0.000000 -1.000000 0.000000
vn 0.000000 -1.000000 0.000000
vn 0.000000 -1.000000 0.000000
vn 0.000000 -1.000000 0.000000
vn 0.000000 -1.000000 0.000000
vn 0.000000 -1.000000 0.000000
vn 0.000000 -1.000000 0.000000
vn 0.000000 -1.000000 0.000000
vn 0.000000 -1.000000 0.000000
vn 0.000000 -1.000000 0.000000
vn 0.000000 -1.000000 0.000000
vn 0.000000 -1.000000 0.000000
vn 0.000000 -1.000000 0.000000
vn 0.000000 -1.000000 0.000000
vn 0.000000 -1.000000 0.000000
vn 0.000000 -1.000000 0.000000
vn 0.000000 -1.000000 0.000000
vn 0.000000 -1.000000 0.000000
vn 0.000000 -1.000000 0.000000
vn 0.000000 -1.000000 0.000000
vn 0.000000 1.000000 0.000000
vn 0.000000 1.000000 0.000000
vn 0.000000 1.000000 0.000000
vn 0.000000 1.000000 0.000000
vn 0.000000 1.000000 0.000000
vn 0.000000 1.000000 0.000000
vn 0.000000 1.000000 0.000000
vn 0.000000 1.000000 0.000000
vn 0.000000 1.000000 0.000000
vn 0.000000 1.000000 0.000000
vn 0.000000 1.000000 0.000000
vn 0.000000 1.000000 0.000000
vn 0.000000 1.000000 0.000000
vn 0.000000 1.000000 0.000000
vn 0.000000 1.000000 0.000000
vn 0.000000 1.000000 0.000000
vn 0.000000 1.000000 0.000000
vn 0.000000 1.000000 0.000000
vn 0.000000 1.000000 0.000000
vn 0.000000 1.000000 0.000000
vn 0.000000 1.000000 0.000000
vn 0.000000 1.000000 0.000000
vn 0.000000 1.000000 0.000000
vn 0.000000 1.000000 0.000000
s off
g pCylinder1
f 9/27/37 10/28/38 17/29/39
f 17/29/40 10/28/41 18/30/42
f 10/31/43 11/32/44 18/33/45
f 18/33/46 11/32/47 19/34/48
f 11/35/49 12/36/50 19/37/51
f 19/37/52 12/36/53 20/38/54
f 12/39/55 13/40/56 20/41/57
f 20/41/58 13/40/59 21/42/60
f 13/43/61 14/44/62 21/45/63
f 21/45/64 14/44/65 22/46/66
f 14/47/67 15/48/68 22/49/69
f 22/49/70 15/48/71 23/50/72
f 15/51/73 16/52/74 23/53/75
f 23/53/76 16/52/77 24/54/78
f 16/55/79 9/56/80 24/57/81
f 24/57/82 9/56/83 17/58/84
f 10/59/85 9/60/86 25/1/87
f 11/62/88 10/59/89 25/1/90
f 12/64/91 11/62/92 25/1/93
f 13/66/94 12/64/95 25/1/96
f 14/65/97 13/66/98 25/1/99
f 15/63/100 14/65/101 25/1/102
f 16/61/103 15/63/104 25/1/105
f 9/60/106 16/61/107 25/1/108
f 17/67/109 18/68/110 26/2/111
f 18/68/112 19/69/113 26/2/114
f 19/69/115 20/71/116 26/2/117
f 20/71/118 21/73/119 26/2/120
f 21/73/121 22/74/122 26/2/123
f 22/74/124 23/72/125 26/2/126
f 23/72/127 24/70/128 26/2/129
f 24/70/130 17/67/131 26/2/132
g default
v 0.100000 0.129873 1.088654
v 0.900000 0.129873 1.088654
v 0.100000 0.597711 0.912224
v 0.900000 0.597711 0.912224
v 0.100000 0.580068 0.865440
v 0.900000 0.580068 0.865440
v 0.100000 0.112230 1.041870
v 0.900000 0.112230 1.041870
vn 0.000000 0.352860 0.935676
vn 0.000000 0.352860 0.935676
vn 0.000000 0.352860 0.935676
vn 0.000000 0.352860 0.935676
vn 0.000000 0.352860 0.935676
vn 0.000000 0.352860 0.935676
vn 0.000000 0.935676 -0.352860
vn 0.000000 0.935676 -0.352860
vn 0.000000 0.935676 -0.352860
vn 0.000000 0.935676 -0.352860
vn 0.000000 0.935676 -0.352860
vn 0.000000 0.935676 -0.352860
vn 0.000000 -0.352860 -0.935676
vn 0.000000 -0.352860 -0.935676
vn 0.000000 -0.352860 -0.935676
vn 0.000000 -0.352860 -0.935676
vn 0.000000 -0.352860 -0.935676
vn 0.000000 -0.352860 -0.935676
vn 0.000000 -0.935676 0.352860
vn 0.000000 -0.935676 0.352860
vn 0.000000 -0.935676 0.352860
vn 0.000000 -0.935676 0.352860
vn 0.000000 -0.935676 0.352860
vn 0.000000 -0.935676 0.352860
vn 1.000000 0.000000 0.000000
vn 1.000000 0.000000 0.000000
vn 1.000000 0.000000 0.000000
vn 1.000000 0.000000 0.000000
vn 1.000000 0.000000 0.000000
vn 1.000000 0.000000 0.000000
vn -1.000000 0.000000 0.000000
vn -1.000000 0.000000 0.000000
vn -1.000000 0.000000 0.000000
vn -1.000000 0.000000 0.000000
vn -1.000000 0.000000 0.000000
vn -1.000000 0.000000 0.000000
s off
g pCube2
f 27/75/133 28/76/134 29/77/135
f 29/77/136 28/76/137 30/78/138
f 29/79/139 30/80/140 31/81/141
f 31/81/142 30/80/143 32/82/144
f 31/83/145 32/84/146 33/85/147
f 33/85/148 32/84/149 34/86/150
f 33/87/151 34/88/152 27/89/153
f 27/89/154 34/88/155 28/90/156
f 28/91/157 34/92/158 30/93/159
f 30/93/160 34/92/161 32/94/162
f 33/95/163 27/96/164 31/97/165
f 31/97/166 27/96/167 29/98/168
g default
v 0.675000 0.137323 1.054747
v 0.725000 0.137323 1.054747
v 0.675000 0.187323 1.054747
v 0.725000 0.187323 1.054747
v 0.675000 0.187323 0.804747
v 0.725000 0.187323 0.804747
v 0.675000 0.137323 0.804747
v 0.725000 0.137323 0.804747
vn 0.000000 0.000000 1.000000
vn 0.000000 0.000000 1.000000
vn 0.000000 0.000000 1.000000
vn 0.000000 0.000000 1.000000
vn 0.000000 0.000000 1.000000
vn 0.000000 0.000000 1.000000
vn 0.000000 1.000000 0.000000
vn 0.000000 1.000000 0.000000
vn 0.000000 1.000000 0.000000
vn 0.000000 1.000000 0.000000
vn 0.000000 1.000000 0.000000
vn 0.000000 1.000000 0.000000
vn 0.000000 0.000000 -1.000000
vn 0.000000 0.000000 -1.000000
vn 0.000000 0.000000 -1.000000
vn 0.000000 0.000000 -1.000000
vn 0.000000 0.000000 -1.000000
vn 0.000000 0.000000 -1.000000
vn 0.000000 -1.000000 0.000000
vn 0.000000 -1.000000 0.000000
vn 0.000000 -1.000000 0.000000
vn 0.000000 -1.000000 0.000000
vn 0.000000 -1.000000 0.000000
vn 0.000000 -1.000000 0.000000
vn 1.000000 0.000000 0.000000
vn 1.000000 0.000000 0.000000
vn 1.000000 0.000000 0.000000
vn 1.000000 0.000000 0.000000
vn 1.000000 0.000000 0.000000
vn 1.000000 0.000000 0.000000
vn -1.000000 0.000000 0.000000
vn -1.000000 0.000000 0.000000
vn -1.000000 0.000000 0.000000
vn -1.000000 0.000000 0.000000
vn -1.000000 0.000000 0.000000
vn -1.000000 0.000000 0.000000
s off
g pCube3
f 35/99/169 36/100/170 37/101/171
f 37/101/172 36/100/173 38/102/174
f 37/103/175 38/104/176 39/105/177
f 39/105/178 38/104/179 40/106/180
f 39/107/181 40/108/182 41/109/183
f 41/109/184 40/108/185 42/110/186
f 41/111/187 42/112/188 35/113/189
f 35/113/190 42/112/191 36/114/192
f 36/115/193 42/116/194 38/117/195
f 38/117/196 42/116/197 40/118/198
f 41/119/199 35/120/200 39/121/201
f 39/121/202 35/120/203 37/122/204
g default
v 0.275000 0.137323 1.054747
v 0.325000 0.137323 1.054747
v 0.275000 0.187323 1.054747
v 0.325000 0.187323 1.054747
v 0.275000 0.187323 0.804747
v 0.325000 0.187323 0.804747
v 0.275000 0.137323 0.804747
v 0.325000 0.137323 0.804747
vn 0.000000 0.000000 1.000000
vn 0.000000 0.000000 1.000000
vn 0.000000 0.000000 1.000000
vn 0.000000 0.000000 1.000000
vn 0.000000 0.000000 1.000000
vn 0.000000 0.000000 1.000000
vn 0.000000 1.000000 0.000000
vn 0.000000 1.000000 0.000000
vn 0.000000 1.000000 0.000000
vn 0.000000 1.000000 0.000000
vn 0.000000 1.000000 0.000000
vn 0.000000 1.000000 0.000000
vn 0.000000 0.000000 -1.000000
vn 0.000000 0.000000 -1.000000
vn 0.000000 0.000000 -1.000000
vn 0.000000 0.000000 -1.000000
vn 0.000000 0.000000 -1.000000
vn 0.000000 0.000000 -1.000000
vn 0.000000 -1.000000 0.000000
vn 0.000000 -1.000000 0.000000
vn 0.000000 -1.000000 0.000000
vn 0.000000 -1.000000 0.000000
vn 0.000000 -1.000000 0.000000
vn 0.000000 -1.000000 0.000000
vn 1.000000 0.000000 0.000000
vn 1.000000 0.000000 0.000000
vn 1.000000 0.000000 0.000000
vn 1.000000 0.000000 0.000000
vn 1.000000 0.000000 0.000000
vn 1.000000 0.000000 0.000000
vn -1.000000 0.000000 0.000000
vn -1.000000 0.000000 0.000000
vn -1.000000 0.000000 0.000000
vn -1.000000 0.000000 0.000000
vn -1.000000 0.000000 0.000000
vn -1.000000 0.000000 0.000000
s off
g pCube4
f 43/123/205 44/124/206 45/125/207
f 45/125/208 44/124/209 46/126/210
f 45/127/211 46/128/212 47/129/213
f 47/129/214 46/128/215 48/130/216
f 47/131/217 48/132/218 49/133/219
f 49/133/220 48/132/221 50/134/222
f 49/135/223 50/136/224 43/137/225
f 43/137/226 50/136/227 44/138/228
f 44/139/229 50/140/230 46/141/231
f 46/141/232 50/140/233 48/142/234
f 49/143/235 43/144/236 47/145/237
f 47/145/238 43/144/239 45/146/240
g default
v 0.282427 -0.908894 0.953619
v 0.310618 -0.908894 0.963880
v 0.350831 -0.748894 0.765681
v 0.379022 -0.748894 0.775941
v 0.350831 -0.908894 0.765681
v 0.379022 -0.908894 0.775941
vn -0.213663 0.780869 0.587020
vn -0.213663 0.780869 0.587020
vn -0.213663 0.780869 0.587020
vn -0.213658 0.780869 0.587021
vn -0.213658 0.780869 0.587021
vn -0.213658 0.780869 0.587021
vn 0.342020 0.000000 -0.939693
vn 0.342020 0.000000 -0.939693
vn 0.342020 0.000000 -0.939693
vn 0.342020 0.000000 -0.939693
vn 0.342020 0.000000 -0.939693
vn 0.342020 0.000000 -0.939693
vn 0.000000 -1.000000 0.000000
vn 0.000000 -1.000000 0.000000
vn 0.000000 -1.000000 0.000000
vn 0.000000 -1.000000 0.000000
vn 0.000000 -1.000000 0.000000
vn 0.000000 -1.000000 0.000000
vn 0.939693 0.000000 0.342020
vn 0.939693 0.000000 0.342020
vn 0.939693 0.000000 0.342020
vn -0.939693 0.000000 -0.342020
vn -0.939693 0.000000 -0.342020
vn -0.939693 0.000000 -0.342020
s off
g pCube6
f 51/147/241 52/148/242 53/149/243
f 53/149/244 52/148/245 54/150/246
f 53/151/247 54/152/248 55/153/249
f 55/153/250 54/152/251 56/154/252
f 55/155/253 56/156/254 51/157/255
f 51/157/256 56/156/257 52/158/258
f 52/159/259 56/160/260 54/161/261
f 55/162/262 51/163/263 53/164/264
g default
v 0.687709 -0.908894 0.963621
v 0.714898 -0.908894 0.950943
v 0.603185 -0.748894 0.782360
v 0.630375 -0.748894 0.769681
v 0.603185 -0.908894 0.782360
v 0.630375 -0.908894 0.769681
vn 0.264000 0.780868 0.566170
vn 0.264000 0.780868 0.566170
vn 0.264000 0.780868 0.566170
vn 0.264008 0.780869 0.566166
vn 0.264008 0.780869 0.566166
vn 0.264008 0.780869 0.566166
vn -0.422618 0.000000 -0.906308
vn -0.422618 0.000000 -0.906308
vn -0.422618 0.000000 -0.906308
vn -0.422618 0.000000 -0.906308
vn -0.422618 0.000000 -0.906308
vn -0.422618 0.000000 -0.906308
vn 0.000000 -1.000000 0.000000
vn 0.000000 -1.000000 0.000000
vn 0.000000 -1.000000 0.000000
vn 0.000000 -1.000000 0.000000
vn 0.000000 -1.000000 0.000000
vn 0.000000 -1.000000 0.000000
vn 0.906308 0.000000 -0.422618
vn 0.906308 0.000000 -0.422618
vn 0.906308 0.000000 -0.422618
vn -0.906308 0.000000 0.422618
vn -0.906308 0.000000 0.422618
vn -0.906308 0.000000 0.422618
s off
g pCube7
f 57/165/265 58/166/266 59/167/267
f 59/167/268 58/166/269 60/168/270
f 59/169/271 60/170/272 61/171/273
f 61/171/274 60/170/275 62/172/276
f 61/173/277 62/174/278 57/175/279
f 57/175/280 62/174/281 58/176/282
f 58/177/283 62/178/284 60/179/285
f 61/180/286 57/181/287 59/182/288
g default
v 0.948921 -0.908894 0.699689
v 0.959181 -0.908894 0.671499
v 0.760982 -0.748894 0.631285
v 0.771243 -0.748894 0.603095
v 0.760982 -0.908894 0.631285
v 0.771243 -0.908894 0.603095
vn 0.587023 0.780869 0.213653
vn 0.587022 0.780869 0.213653
vn 0.587022 0.780869 0.213653
vn 0.587021 0.780869 0.213658
vn 0.587021 0.780869 0.213658
vn 0.587021 0.780869 0.213658
vn -0.939693 0.000000 -0.342020
vn -0.939693 0.000000 -0.342020
vn -0.939693 0.000000 -0.342020
vn -0.939693 0.000000 -0.342020
vn -0.939693 0.000000 -0.342020
vn -0.939693 0.000000 -0.342020
vn 0.000000 -1.000000 0.000000
vn 0.000000 -1.000000 0.000000
vn 0.000000 -1.000000 0.000000
vn 0.000000 -1.000000 0.000000
vn 0.000000 -1.000000 0.000000
vn 0.000000 -1.000000 0.000000
vn 0.342020 0.000000 -0.939693
vn 0.342020 0.000000 -0.939693
vn 0.342020 0.000000 -0.939693
vn -0.342020 0.000000 0.939693
vn -0.342020 0.000000 0.939693
vn -0.342020 0.000000 0.939693
s off
g pCube8
f 63/183/289 64/184/290 65/185/291
f 65/185/292 64/184/293 66/186/294
f 65/187/295 66/188/296 67/189/297
f 67/189/298 66/188/299 68/190/300
f 67/191/301 68/192/302 63/193/303
f 63/193/304 68/192/305 64/194/306
f 64/195/307 68/196/308 66/197/309
f 67/198/310 63/199/311 65/200/312
g default
v 0.947030 -0.908894 0.322375
v 0.934351 -0.908894 0.295186
v 0.765768 -0.748894 0.406899
v 0.753090 -0.748894 0.379710
v 0.765768 -0.908894 0.406899
v 0.753090 -0.908894 0.379710
vn 0.566161 0.780869 -0.264017
vn 0.566161 0.780869 -0.264017
vn 0.566161 0.780869 -0.264017
vn 0.566166 0.780869 -0.264008
vn 0.566166 0.780869 -0.264008
vn 0.566166 0.780869 -0.264007
vn -0.906308 0.000000 0.422618
vn -0.906308 0.000000 0.422618
vn -0.906308 0.000000 0.422618
vn -0.906308 0.000000 0.422618
vn -0.906308 0.000000 0.422618
vn -0.906308 0.000000 0.422618
vn 0.000000 -1.000000 0.000000
vn 0.000000 -1.000000 0.000000
vn 0.000000 -1.000000 0.000000
vn 0.000000 -1.000000 0.000000
vn 0.000000 -1.000000 0.000000
vn 0.000000 -1.000000 0.000000
vn -0.422618 0.000000 -0.906308
vn -0.422618 0.000000 -0.906308
vn -0.422618 0.000000 -0.906308
vn 0.422618 0.000000 0.906308
vn 0.422618 0.000000 0.906308
vn 0.422618 0.000000 0.906308
s off
g pCube9
f 69/201/313 70/202/314 71/203/315
f 71/203/316 70/202/317 72/204/318
f 71/205/319 72/206/320 73/207/321
f 73/207/322 72/206/323 74/208/324
f 73/209/325 74/210/326 69/211/327
f 69/211/328 74/210/329 70/212/330
f 70/213/331 74/214/332 72/215/333
f 73/216/334 69/217/335 71/218/336
g default
v 0.698168 -0.908894 0.055650
v 0.669977 -0.908894 0.045389
v 0.629764 -0.748894 0.243588
v 0.601573 -0.748894 0.233328
v 0.629764 -0.908894 0.243588
v 0.601573 -0.908894 0.233328
vn 0.213663 0.780868 -0.587020
vn 0.213663 0.780868 -0.587020
vn 0.213663 0.780868 -0.587020
vn 0.213658 0.780869 -0.587021
vn 0.213658 0.780869 -0.587021
vn 0.213658 0.780869 -0.587021
vn -0.342020 0.000000 0.939693
vn -0.342020 0.000000 0.939693
vn -0.342020 0.000000 0.939693
vn -0.342020 0.000000 0.939693
vn -0.342020 0.000000 0.939693
vn -0.342020 0.000000 0.939693
vn 0.000000 -1.000000 0.000000
vn 0.000000 -1.000000 0.000000
vn 0.000000 -1.000000 0.000000
vn 0.000000 -1.000000 0.000000
vn 0.000000 -1.000000 0.000000
vn 0.000000 -1.000000 0.000000
vn -0.939693 0.000000 -0.342020
vn -0.939693 0.000000 -0.342020
vn -0.939693 0.000000 -0.342020
vn 0.939693 0.000000 0.342020
vn 0.939693 0.000000 0.342020
vn 0.939693 0.000000 0.342020
s off
g pCube10
f 75/219/337 76/220/338 77/221/339
f 77/221/340 76/220/341 78/222/342
f 77/223/343 78/224/344 79/225/345
f 79/225/346 78/224/347 80/226/348
f 79/227/349 80/228/350 75/229/351
f 75/229/352 80/228/353 76/230/354
f 76/231/355 80/232/356 78/233/357
f 79/234/358 75/235/359 77/236/360
g default
v 0.323643 -0.908894 0.044172
v 0.296454 -0.908894 0.056850
v 0.408167 -0.748894 0.225433
v 0.380977 -0.748894 0.238112
v 0.408167 -0.908894 0.225433
v 0.380977 -0.908894 0.238112
vn -0.263999 0.780869 -0.566170
vn -0.263999 0.780869 -0.566170
vn -0.263999 0.780869 -0.566170
vn -0.264008 0.780869 -0.566166
vn -0.264008 0.780869 -0.566166
vn -0.264008 0.780869 -0.566166
vn 0.422618 0.000000 0.906308
vn 0.422618 0.000000 0.906308
vn 0.422618 0.000000 0.906308
vn 0.422618 0.000000 0.906308
vn 0.422618 0.000000 0.906308
vn 0.422618 0.000000 0.906308
vn 0.000000 -1.000000 0.000000
vn 0.000000 -1.000000 0.000000
vn 0.000000 -1.000000 0.000000
vn 0.000000 -1.000000 0.000000
vn 0.000000 -1.000000 0.000000
vn 0.000000 -1.000000 0.000000
vn -0.906308 0.000000 0.422618
vn -0.906308 0.000000 0.422618
vn -0.906308 0.000000 0.422618
vn 0.906308 0.000000 -0.422618
vn 0.906308 0.000000 -0.422618
vn 0.906308 0.000000 -0.422618
s off
g pCube11
f 81/237/361 82/238/362 83/239/363
f 83/239/364 82/238/365 84/240/366
f 83/241/367 84/242/368 85/243/369
f 85/243/370 84/242/371 86/244/372
f 85/245/373 86/246/374 81/247/375
f 81/247/376 86/246/377 82/248/378
f 82/249/379 86/250/380 84/251/381
f 85/252/382 81/253/383 83/254/384
g default
v 0.055814 -0.908894 0.305894
v 0.045554 -0.908894 0.334084
v 0.243753 -0.748894 0.374298
v 0.233492 -0.748894 0.402488
v 0.243753 -0.908894 0.374298
v 0.233492 -0.908894 0.402488
vn -0.587023 0.780869 -0.213652
vn -0.587023 0.780869 -0.213652
vn -0.587023 0.780869 -0.213652
vn -0.587021 0.780869 -0.213658
vn -0.587021 0.780869 -0.213658
vn -0.587021 0.780869 -0.213658
vn 0.939693 0.000000 0.342020
vn 0.939693 0.000000 0.342020
vn 0.939693 0.000000 0.342020
vn 0.939693 0.000000 0.342020
vn 0.939693 0.000000 0.342020
vn 0.939693 0.000000 0.342020
vn 0.000000 -1.000000 0.000000
vn 0.000000 -1.000000 0.000000
vn 0.000000 -1.000000 0.000000
vn 0.000000 -1.000000 0.000000
vn 0.000000 -1.000000 0.000000
vn 0.000000 -1.000000 0.000000
vn -0.342020 0.000000 0.939693
vn -0.342020 0.000000 0.939693
vn -0.342020 0.000000 0.939693
vn 0.342020 0.000000 -0.939693
vn 0.342020 0.000000 -0.939693
vn 0.342020 0.000000 -0.939693
s off
g pCube12
f 87/255/385 88/256/386 89/257/387
f 89/257/388 88/256/389 90/258/390
f 89/259/391 90/260/392 91/261/393
f 91/261/394 90/260/395 92/262/396
f 91/263/397 92/264/398 87/265/399
f 87/265/400 92/264/401 88/266/402
f 88/267/403 92/268/404 90/269/405
f 91/270/406 87/271/407 89/272/408
g default
v 0.051761 -0.908894 0.682569
v 0.064440 -0.908894 0.709759
v 0.233023 -0.748894 0.598046
v 0.245701 -0.748894 0.625235
v 0.233023 -0.908894 0.598046
v 0.245701 -0.908894 0.625235
vn -0.566165 0.780869 0.264010
vn -0.566165 0.780869 0.264010
vn -0.566165 0.780869 0.264010
vn -0.566166 0.780869 0.264008
vn -0.566166 0.780869 0.264008
vn -0.566166 0.780869 0.264007
vn 0.906308 0.000000 -0.422618
vn 0.906308 0.000000 -0.422618
vn 0.906308 0.000000 -0.422618
vn 0.906308 0.000000 -0.422618
vn 0.906308 0.000000 -0.422618
vn 0.906308 0.000000 -0.422618
vn 0.000000 -1.000000 0.000000
vn 0.000000 -1.000000 0.000000
vn 0.000000 -1.000000 0.000000
vn 0.000000 -1.000000 0.000000
vn 0.000000 -1.000000 0.000000
vn 0.000000 -1.000000 0.000000
vn 0.422618 0.000000 0.906308
vn 0.422618 0.000000 0.906308
vn 0.422618 0.000000 0.906308
vn -0.422618 0.000000 -0.906308
vn -0.422618 0.000000 -0.906308
vn -0.422618 0.000000 -0.906308
s off
g pCube13
f 93/273/409 94/274/410 95/275/411
f 95/275/412 94/274/413 96/276/414
f 95/277/415 96/278/416 97/279/417
f 97/279/418 96/278/419 98/280/420
f 97/281/421 98/282/422 93/283/423
f 93/283/424 98/282/425 94/284/426
f 94/285/427 98/286/428 96/287/429
f 97/288/430 93/289/431 95/290/432
