v 0.334103 0.217975 0.495023
v 0.665897 0.217975 0.495023
v 0.334103 0.217975 0.504977
v 0.665897 0.217975 0.504977
v 0.334103 0.782025 0.504977
v 0.665897 0.782025 0.504977
v 0.334103 0.782025 0.495023
v 0.665897 0.782025 0.495023
v 0.439835 0.217975 0.495023
v 0.335375 0.217975 0.495023
v 0.442457 0.217975 0.495023
v 0.443850 0.217975 0.495023
v 0.446490 0.217975 0.495023
v 0.553280 0.217975 0.495023
v 0.555831 0.217975 0.495023
v 0.557224 0.217975 0.495023
v 0.559938 0.217975 0.495023
v 0.664458 0.217975 0.495023
v 0.335375 0.217975 0.504977
v 0.439835 0.217975 0.504977
v 0.442457 0.217975 0.504977
v 0.443850 0.217975 0.504977
v 0.446490 0.217975 0.504977
v 0.553280 0.217975 0.504977
v 0.555831 0.217975 0.504977
v 0.557224 0.217975 0.504977
v 0.559938 0.217975 0.504977
v 0.664458 0.217975 0.504977
v 0.387777 0.307042 0.504977
v 0.389818 0.310525 0.504977
v 0.389705 0.308248 0.504977
v 0.445781 0.405674 0.504977
v 0.444352 0.403169 0.504977
v 0.453629 0.308248 0.504977
v 0.498388 0.310525 0.504977
v 0.499635 0.308248 0.504977
v 0.497050 0.308248 0.504977
v 0.446801 0.403397 0.504977
v 0.499839 0.497726 0.504977
v 0.500157 0.308248 0.504977
v 0.501494 0.310525 0.504977
v 0.502832 0.308248 0.504977
v 0.503467 0.500527 0.504977
v 0.501585 0.500527 0.504977
v 0.502175 0.498250 0.504977
v 0.501245 0.310912 0.504977
v 0.499839 0.313166 0.504977
v 0.553988 0.405674 0.504977
v 0.555553 0.403169 0.504977
v 0.552968 0.403397 0.504977
v 0.558070 0.596654 0.504977
v 0.557457 0.594377 0.504977
v 0.555802 0.592715 0.504977
v 0.555575 0.407655 0.504977
v 0.556936 0.405674 0.504977
v 0.557934 0.403397 0.504977
v 0.498615 0.310912 0.504977
v 0.610042 0.500527 0.504977
v 0.608749 0.498250 0.504977
v 0.609974 0.310525 0.504977
v 0.614010 0.689435 0.504977
v 0.612015 0.688342 0.504977
v 0.614078 0.691712 0.504977
v 0.611357 0.498113 0.504977
v 0.612899 0.500527 0.504977
v 0.614010 0.498113 0.504977
v 0.614123 0.310480 0.504977
v 0.614033 0.308203 0.504977
v 0.611992 0.311527 0.504977
v 0.610178 0.308248 0.504977
v 0.612060 0.307042 0.504977
v 0.611425 0.502598 0.504977
v 0.665897 0.409902 0.504977
v 0.665897 0.398847 0.504977
v 0.665778 0.405674 0.504977
v 0.665897 0.779867 0.504977
v 0.665897 0.691712 0.504977
v 0.665897 0.689435 0.504977
v 0.665897 0.601603 0.504977
v 0.665897 0.596654 0.504977
v 0.665461 0.594377 0.504977
v 0.665897 0.590556 0.504977
v 0.665897 0.500527 0.504977
v 0.665897 0.498245 0.504977
v 0.665733 0.403397 0.504977
v 0.665897 0.310480 0.504977
v 0.665897 0.308203 0.504977
v 0.665897 0.220043 0.504977
v 0.665897 0.597144 0.504977
v 0.334103 0.308294 0.504977
v 0.334103 0.310571 0.504977
v 0.334103 0.220293 0.504977
v 0.334103 0.779669 0.504977
v 0.335339 0.782025 0.504977
v 0.334103 0.691780 0.504977
v 0.334103 0.689503 0.504977
v 0.334103 0.601821 0.504977
v 0.334103 0.590344 0.504977
v 0.334103 0.596654 0.504977
v 0.334308 0.594377 0.504977
v 0.334103 0.500458 0.504977
v 0.334103 0.498181 0.504977
v 0.334103 0.410329 0.504977
v 0.334103 0.398809 0.504977
v 0.385827 0.308294 0.504977
v 0.385736 0.310571 0.504977
v 0.387777 0.311527 0.504977
v 0.385782 0.691780 0.504977
v 0.385872 0.689503 0.504977
v 0.386983 0.500458 0.504977
v 0.385850 0.498181 0.504977
v 0.389841 0.691780 0.504977
v 0.389773 0.689503 0.504977
v 0.387823 0.692828 0.504977
v 0.389818 0.500527 0.504977
v 0.390997 0.498250 0.504977
v 0.388457 0.498113 0.504977
v 0.387823 0.688342 0.504977
v 0.388412 0.502598 0.504977
v 0.334103 0.405674 0.504977
v 0.334103 0.403397 0.504977
v 0.334103 0.403244 0.504977
v 0.442448 0.594377 0.504977
v 0.444058 0.597201 0.504977
v 0.445713 0.594377 0.504977
v 0.444058 0.592715 0.504977
v 0.440449 0.782025 0.504977
v 0.443135 0.782025 0.504977
v 0.441790 0.596654 0.504977
v 0.444307 0.407655 0.504977
v 0.442878 0.405674 0.504977
v 0.441858 0.403397 0.504977
v 0.497572 0.691780 0.504977
v 0.496974 0.498250 0.504977
v 0.497572 0.498250 0.504977
v 0.447105 0.782025 0.504977
v 0.444434 0.782025 0.504977
v 0.446370 0.596654 0.504977
v 0.502333 0.691780 0.504977
v 0.501517 0.689503 0.504977
v 0.499839 0.692190 0.504977
v 0.498365 0.689503 0.504977
v 0.499839 0.687705 0.504977
v 0.538310 0.691780 0.504977
v 0.537717 0.689503 0.504977
v 0.553399 0.596631 0.504977
v 0.554260 0.594377 0.504977
v 0.555802 0.597201 0.504977
v 0.559433 0.782025 0.504977
v 0.556747 0.782025 0.504977
v 0.664522 0.782025 0.504977
v 0.612060 0.692828 0.504977
v 0.610110 0.689503 0.504977
v 0.610042 0.691780 0.504977
v 0.552765 0.782025 0.504977
v 0.555449 0.782025 0.504977
v 0.556300 0.691780 0.504977
v 0.499839 0.502211 0.504977
v 0.498297 0.500527 0.504977
v 0.334103 0.597343 0.504977
v 0.334103 0.405787 0.504977
v 0.335339 0.782025 0.495023
v 0.444434 0.782025 0.495023
v 0.443135 0.782025 0.495023
v 0.440449 0.782025 0.495023
v 0.555449 0.782025 0.495023
v 0.552765 0.782025 0.495023
v 0.664522 0.782025 0.495023
v 0.559433 0.782025 0.495023
v 0.556747 0.782025 0.495023
v 0.447105 0.782025 0.495023
v 0.389841 0.691780 0.495023
v 0.387823 0.692828 0.495023
v 0.389773 0.689503 0.495023
v 0.444058 0.597201 0.495023
v 0.445713 0.594377 0.495023
v 0.499839 0.692190 0.495023
v 0.498365 0.689503 0.495023
v 0.497572 0.691780 0.495023
v 0.501517 0.689503 0.495023
v 0.499839 0.687705 0.495023
v 0.446370 0.596654 0.495023
v 0.499839 0.502211 0.495023
v 0.502175 0.498250 0.495023
v 0.502213 0.500527 0.495023
v 0.503467 0.500527 0.495023
v 0.558070 0.596654 0.495023
v 0.555802 0.597201 0.495023
v 0.557457 0.594377 0.495023
v 0.554260 0.594377 0.495023
v 0.555802 0.592715 0.495023
v 0.556936 0.405674 0.495023
v 0.555575 0.407655 0.495023
v 0.557934 0.403397 0.495023
v 0.556300 0.691780 0.495023
v 0.553399 0.596631 0.495023
v 0.502333 0.691780 0.495023
v 0.573910 0.689503 0.495023
v 0.501585 0.500527 0.495023
v 0.610042 0.500527 0.495023
v 0.611357 0.498113 0.495023
v 0.608749 0.498250 0.495023
v 0.574215 0.691780 0.495023
v 0.610042 0.691780 0.495023
v 0.610110 0.689503 0.495023
v 0.611425 0.502598 0.495023
v 0.614078 0.691712 0.495023
v 0.614010 0.689435 0.495023
v 0.612060 0.692828 0.495023
v 0.612015 0.688342 0.495023
v 0.614010 0.498113 0.495023
v 0.612899 0.500527 0.495023
v 0.614123 0.310480 0.495023
v 0.611992 0.311527 0.495023
v 0.614033 0.308203 0.495023
v 0.665897 0.779867 0.495023
v 0.665897 0.691712 0.495023
v 0.665897 0.689435 0.495023
v 0.665897 0.601603 0.495023
v 0.665897 0.596654 0.495023
v 0.665897 0.590556 0.495023
v 0.665461 0.594377 0.495023
v 0.665897 0.500527 0.495023
v 0.665897 0.498245 0.495023
v 0.665897 0.409902 0.495023
v 0.665897 0.398847 0.495023
v 0.665778 0.405674 0.495023
v 0.665733 0.403397 0.495023
v 0.665897 0.310480 0.495023
v 0.665897 0.308203 0.495023
v 0.665897 0.220043 0.495023
v 0.665897 0.597144 0.495023
v 0.334103 0.220293 0.495023
v 0.334103 0.308294 0.495023
v 0.334103 0.310571 0.495023
v 0.334103 0.779669 0.495023
v 0.334103 0.691780 0.495023
v 0.334103 0.689503 0.495023
v 0.334103 0.601821 0.495023
v 0.334103 0.596654 0.495023
v 0.334103 0.597343 0.495023
v 0.334103 0.590344 0.495023
v 0.334308 0.594377 0.495023
v 0.334103 0.498181 0.495023
v 0.334103 0.500458 0.495023
v 0.334103 0.410329 0.495023
v 0.334103 0.398809 0.495023
v 0.387823 0.688342 0.495023
v 0.385872 0.689503 0.495023
v 0.385782 0.691780 0.495023
v 0.385827 0.308294 0.495023
v 0.385736 0.310571 0.495023
v 0.387777 0.311527 0.495023
v 0.386983 0.500458 0.495023
v 0.385850 0.498181 0.495023
v 0.387777 0.307042 0.495023
v 0.388457 0.498113 0.495023
v 0.389818 0.500527 0.495023
v 0.390997 0.498250 0.495023
v 0.388412 0.502598 0.495023
v 0.389818 0.310525 0.495023
v 0.389705 0.308248 0.495023
v 0.334103 0.405787 0.495023
v 0.334103 0.405674 0.495023
v 0.334103 0.403397 0.495023
v 0.334103 0.403244 0.495023
v 0.444352 0.403169 0.495023
v 0.445781 0.405674 0.495023
v 0.446801 0.403397 0.495023
v 0.442878 0.405674 0.495023
v 0.444307 0.407655 0.495023
v 0.442448 0.594377 0.495023
v 0.441790 0.596654 0.495023
v 0.444058 0.592715 0.495023
v 0.441858 0.403397 0.495023
v 0.497572 0.498250 0.495023
v 0.498297 0.500527 0.495023
v 0.496974 0.498250 0.495023
v 0.498388 0.310525 0.495023
v 0.453629 0.308248 0.495023
v 0.497050 0.308248 0.495023
v 0.500157 0.308248 0.495023
v 0.498615 0.310912 0.495023
v 0.499839 0.313166 0.495023
v 0.501245 0.310912 0.495023
v 0.552968 0.403397 0.495023
v 0.502832 0.308248 0.495023
v 0.501494 0.310525 0.495023
v 0.553988 0.405674 0.495023
v 0.555553 0.403169 0.495023
v 0.612060 0.307042 0.495023
v 0.609974 0.310525 0.495023
v 0.610178 0.308248 0.495023
v 0.499839 0.497726 0.495023
v 0.499635 0.308248 0.495023
v 0.612060 0.307042 0.495023
v 0.612060 0.307042 0.504977
v 0.559938 0.217975 0.495023
v 0.664458 0.217975 0.495023
v 0.664458 0.217975 0.504977
v 0.559938 0.217975 0.504977
v 0.499635 0.308248 0.495023
v 0.499635 0.308248 0.504977
v 0.446490 0.217975 0.495023
v 0.500157 0.308248 0.495023
v 0.500157 0.308248 0.504977
v 0.553280 0.217975 0.495023
v 0.553280 0.217975 0.504977
v 0.446490 0.217975 0.504977
v 0.502832 0.308248 0.495023
v 0.502832 0.308248 0.504977
v 0.555831 0.217975 0.495023
v 0.610178 0.308248 0.495023
v 0.557224 0.217975 0.495023
v 0.610178 0.308248 0.504977
v 0.557224 0.217975 0.504977
v 0.555831 0.217975 0.504977
v 0.389705 0.308248 0.495023
v 0.389705 0.308248 0.504977
v 0.442457 0.217975 0.495023
v 0.453629 0.308248 0.495023
v 0.453629 0.308248 0.504977
v 0.497050 0.308248 0.495023
v 0.443850 0.217975 0.495023
v 0.497050 0.308248 0.504977
v 0.443850 0.217975 0.504977
v 0.442457 0.217975 0.504977
v 0.614033 0.308203 0.495023
v 0.614033 0.308203 0.504977
v 0.665897 0.220043 0.495023
v 0.665897 0.308203 0.495023
v 0.665897 0.308203 0.504977
v 0.665897 0.220043 0.504977
v 0.334103 0.220293 0.495023
v 0.385827 0.308294 0.495023
v 0.334103 0.220293 0.504977
v 0.334103 0.308294 0.495023
v 0.334103 0.308294 0.504977
v 0.385827 0.308294 0.504977
v 0.444352 0.403169 0.495023
v 0.444352 0.403169 0.504977
v 0.389818 0.310525 0.495023
v 0.498615 0.310912 0.495023
v 0.498615 0.310912 0.504977
v 0.498388 0.310525 0.495023
v 0.498388 0.310525 0.504977
v 0.389818 0.310525 0.504977
v 0.555553 0.403169 0.495023
v 0.555553 0.403169 0.504977
v 0.501245 0.310912 0.495023
v 0.609974 0.310525 0.495023
v 0.609974 0.310525 0.504977
v 0.501494 0.310525 0.495023
v 0.501494 0.310525 0.504977
v 0.501245 0.310912 0.504977
v 0.665897 0.398847 0.504977
v 0.614123 0.310480 0.504977
v 0.665897 0.398847 0.495023
v 0.665897 0.310480 0.504977
v 0.665897 0.310480 0.495023
v 0.614123 0.310480 0.495023
v 0.334103 0.310571 0.495023
v 0.385736 0.310571 0.495023
v 0.334103 0.310571 0.504977
v 0.334103 0.398809 0.495023
v 0.334103 0.398809 0.504977
v 0.385736 0.310571 0.504977
v 0.446801 0.403397 0.495023
v 0.446801 0.403397 0.504977
v 0.499839 0.313166 0.495023
v 0.552968 0.403397 0.495023
v 0.552968 0.403397 0.504977
v 0.499839 0.313166 0.504977
v 0.334103 0.403244 0.504977
v 0.387777 0.311527 0.504977
v 0.334103 0.403244 0.495023
v 0.334103 0.403397 0.504977
v 0.441858 0.403397 0.504977
v 0.334103 0.403397 0.495023
v 0.441858 0.403397 0.495023
v 0.387777 0.311527 0.495023
v 0.388457 0.498113 0.495023
v 0.388457 0.498113 0.504977
v 0.334103 0.405787 0.495023
v 0.442878 0.405674 0.495023
v 0.334103 0.405674 0.495023
v 0.442878 0.405674 0.504977
v 0.334103 0.405674 0.504977
v 0.334103 0.405787 0.504977
v 0.499839 0.497726 0.495023
v 0.499839 0.497726 0.504977
v 0.445781 0.405674 0.495023
v 0.553988 0.405674 0.495023
v 0.553988 0.405674 0.504977
v 0.445781 0.405674 0.504977
v 0.611357 0.498113 0.495023
v 0.611357 0.498113 0.504977
v 0.556936 0.405674 0.495023
v 0.665778 0.405674 0.495023
v 0.665778 0.405674 0.504977
v 0.556936 0.405674 0.504977
v 0.502175 0.498250 0.495023
v 0.502175 0.498250 0.504977
v 0.555575 0.407655 0.495023
v 0.608749 0.498250 0.495023
v 0.608749 0.498250 0.504977
v 0.555575 0.407655 0.504977
v 0.665897 0.498245 0.504977
v 0.614010 0.498113 0.504977
v 0.665897 0.498245 0.495023
v 0.665897 0.409902 0.504977
v 0.665897 0.409902 0.495023
v 0.614010 0.498113 0.495023
v 0.334103 0.410329 0.495023
v 0.385850 0.498181 0.495023
v 0.334103 0.410329 0.504977
v 0.334103 0.498181 0.495023
v 0.334103 0.498181 0.504977
v 0.385850 0.498181 0.504977
v 0.390997 0.498250 0.495023
v 0.390997 0.498250 0.504977
v 0.444307 0.407655 0.495023
v 0.496974 0.498250 0.495023
v 0.496974 0.498250 0.504977
v 0.497572 0.498250 0.495023
v 0.497572 0.498250 0.504977
v 0.444307 0.407655 0.504977
v 0.555802 0.592715 0.495023
v 0.555802 0.592715 0.504977
v 0.501585 0.500527 0.495023
v 0.610042 0.500527 0.495023
v 0.610042 0.500527 0.504977
v 0.503467 0.500527 0.495023
v 0.503467 0.500527 0.504977
v 0.501585 0.500527 0.504977
v 0.334103 0.500458 0.495023
v 0.386983 0.500458 0.495023
v 0.334103 0.500458 0.504977
v 0.334103 0.590344 0.495023
v 0.334103 0.590344 0.504977
v 0.386983 0.500458 0.504977
v 0.665897 0.590556 0.504977
v 0.612899 0.500527 0.504977
v 0.665897 0.590556 0.495023
v 0.665897 0.500527 0.504977
v 0.665897 0.500527 0.495023
v 0.612899 0.500527 0.495023
v 0.444058 0.592715 0.495023
v 0.444058 0.592715 0.504977
v 0.389818 0.500527 0.495023
v 0.498297 0.500527 0.495023
v 0.498297 0.500527 0.504977
v 0.389818 0.500527 0.504977
v 0.445713 0.594377 0.495023
v 0.445713 0.594377 0.504977
v 0.499839 0.502211 0.495023
v 0.554260 0.594377 0.495023
v 0.554260 0.594377 0.504977
v 0.499839 0.502211 0.504977
v 0.334308 0.594377 0.495023
v 0.334308 0.594377 0.504977
v 0.388412 0.502598 0.495023
v 0.442448 0.594377 0.495023
v 0.442448 0.594377 0.504977
v 0.388412 0.502598 0.504977
v 0.557457 0.594377 0.495023
v 0.557457 0.594377 0.504977
v 0.611425 0.502598 0.495023
v 0.665461 0.594377 0.495023
v 0.665461 0.594377 0.504977
v 0.611425 0.502598 0.504977
v 0.612015 0.688342 0.495023
v 0.612015 0.688342 0.504977
v 0.558070 0.596654 0.495023
v 0.665897 0.597144 0.495023
v 0.665897 0.597144 0.504977
v 0.665897 0.596654 0.495023
v 0.665897 0.596654 0.504977
v 0.558070 0.596654 0.504977
v 0.387823 0.688342 0.495023
v 0.387823 0.688342 0.504977
v 0.334103 0.597343 0.495023
v 0.441790 0.596654 0.495023
v 0.334103 0.596654 0.495023
v 0.441790 0.596654 0.504977
v 0.334103 0.596654 0.504977
v 0.334103 0.597343 0.504977
v 0.499839 0.687705 0.495023
v 0.499839 0.687705 0.504977
v 0.446370 0.596654 0.495023
v 0.553399 0.596631 0.495023
v 0.553399 0.596631 0.504977
v 0.446370 0.596654 0.504977
v 0.389773 0.689503 0.495023
v 0.389773 0.689503 0.504977
v 0.444058 0.597201 0.495023
v 0.498365 0.689503 0.495023
v 0.498365 0.689503 0.504977
v 0.444058 0.597201 0.504977
v 0.501517 0.689503 0.495023
v 0.501517 0.689503 0.504977
v 0.555802 0.597201 0.495023
v 0.610110 0.689503 0.495023
v 0.610110 0.689503 0.504977
v 0.555802 0.597201 0.504977
v 0.334103 0.601821 0.495023
v 0.385872 0.689503 0.495023
v 0.334103 0.601821 0.504977
v 0.334103 0.689503 0.495023
v 0.334103 0.689503 0.504977
v 0.385872 0.689503 0.504977
v 0.334103 0.691780 0.495023
v 0.385782 0.691780 0.495023
v 0.334103 0.691780 0.504977
v 0.334103 0.779669 0.495023
v 0.334103 0.779669 0.504977
v 0.385782 0.691780 0.504977
v 0.555449 0.782025 0.504977
v 0.502333 0.691780 0.504977
v 0.555449 0.782025 0.495023
v 0.556747 0.782025 0.504977
v 0.556747 0.782025 0.495023
v 0.610042 0.691780 0.504977
v 0.610042 0.691780 0.495023
v 0.556300 0.691780 0.504977
v 0.556300 0.691780 0.495023
v 0.502333 0.691780 0.495023
v 0.443135 0.782025 0.504977
v 0.389841 0.691780 0.504977
v 0.443135 0.782025 0.495023
v 0.444434 0.782025 0.504977
v 0.444434 0.782025 0.495023
v 0.497572 0.691780 0.504977
v 0.497572 0.691780 0.495023
v 0.389841 0.691780 0.495023
v 0.447105 0.782025 0.504977
v 0.499839 0.692190 0.504977
v 0.447105 0.782025 0.495023
v 0.552765 0.782025 0.504977
v 0.552765 0.782025 0.495023
v 0.499839 0.692190 0.495023
v 0.335339 0.782025 0.504977
v 0.387823 0.692828 0.504977
v 0.335339 0.782025 0.495023
v 0.440449 0.782025 0.504977
v 0.440449 0.782025 0.495023
v 0.387823 0.692828 0.495023
v 0.559433 0.782025 0.504977
v 0.559433 0.782025 0.495023
v 0.612060 0.692828 0.495023
v 0.612060 0.692828 0.504977
v 0.664522 0.782025 0.504977
v 0.664522 0.782025 0.495023
vt 0.618954 0.017114
vt 0.618954 0.014908
vt 0.636212 0.014908
vt 0.636212 0.017114
vt 0.618954 0.394924
vt 0.636212 0.394924
vt 0.636212 0.399346
vt 0.618954 0.399346
vt 0.618954 0.406467
vt 0.618954 0.401762
vt 0.636212 0.401762
vt 0.636212 0.406467
vt 0.636212 0.590182
vt 0.618954 0.590182
vt 0.618954 0.587687
vt 0.636212 0.587687
vt 0.618954 0.202775
vt 0.618954 0.198230
vt 0.636212 0.198230
vt 0.636212 0.202775
vt 0.618954 0.205191
vt 0.636212 0.205191
vt 0.636212 0.209768
vt 0.618954 0.209768
vt 0.376690 0.832308
vt 0.502208 0.832308
vt 0.502090 0.836255
vt 0.408910 0.836255
vt 0.377719 0.836255
vt 0.311017 0.507576
vt 0.217171 0.667376
vt 0.218312 0.671323
vt 0.311017 0.829189
vt 0.308462 0.832308
vt 0.214301 0.672271
vt 0.120181 0.832308
vt 0.116799 0.830294
vt 0.210370 0.671323
vt 0.023659 0.671323
vt 0.024015 0.667376
vt 0.211510 0.667376
vt 0.214301 0.664494
vt 0.308344 0.504655
vt 0.212257 0.340196
vt 0.214734 0.343631
vt 0.122304 0.500707
vt 0.306049 0.500707
vt 0.307086 0.500707
vt 0.120259 0.504655
vt 0.117822 0.508247
vt 0.023659 0.660383
vt 0.115345 0.504536
vt 0.023659 0.504536
vt 0.023659 0.500588
vt 0.113379 0.500588
vt 0.023659 0.348268
vt 0.023659 0.340393
vt 0.117900 0.500470
vt 0.598727 0.340196
vt 0.410013 0.340196
vt 0.407654 0.343631
vt 0.315067 0.500707
vt 0.311017 0.499799
vt 0.404902 0.340196
vt 0.403133 0.336249
vt 0.311017 0.179804
vt 0.219059 0.336249
vt 0.214813 0.335854
vt 0.308894 0.175896
vt 0.308501 0.175225
vt 0.120259 0.175225
vt 0.120063 0.171277
vt 0.230897 0.171277
vt 0.306181 0.171277
vt 0.213942 0.014759
vt 0.218519 0.014759
vt 0.310663 0.171277
vt 0.311568 0.171277
vt 0.403675 0.014759
vt 0.408097 0.014759
vt 0.316207 0.171277
vt 0.502325 0.171277
vt 0.501972 0.175225
vt 0.313887 0.175225
vt 0.313455 0.175896
vt 0.407615 0.335854
vt 0.411743 0.336249
vt 0.598648 0.336249
vt 0.410513 0.014759
vt 0.415218 0.014759
vt 0.505589 0.169185
vt 0.596438 0.014759
vt 0.598933 0.014759
vt 0.598933 0.018345
vt 0.509009 0.171198
vt 0.598933 0.171198
vt 0.598933 0.175146
vt 0.509166 0.175146
vt 0.598933 0.328359
vt 0.598933 0.347527
vt 0.508970 0.500470
vt 0.598933 0.500698
vt 0.598933 0.504655
vt 0.507043 0.504655
vt 0.598933 0.660751
vt 0.598933 0.671323
vt 0.598176 0.667376
vt 0.504488 0.508247
vt 0.410917 0.667376
vt 0.408047 0.664494
vt 0.502090 0.504655
vt 0.317308 0.504655
vt 0.314044 0.504655
vt 0.499849 0.500707
vt 0.504370 0.500470
vt 0.505471 0.176962
vt 0.023659 0.328295
vt 0.113182 0.175304
vt 0.023659 0.175304
vt 0.023659 0.171356
vt 0.113340 0.171356
vt 0.023659 0.018778
vt 0.023659 0.014759
vt 0.025865 0.014759
vt 0.116721 0.169185
vt 0.206981 0.014759
vt 0.211526 0.014759
vt 0.217289 0.340196
vt 0.411979 0.671323
vt 0.505510 0.830294
vt 0.598933 0.672172
vt 0.598933 0.679903
vt 0.508970 0.832189
vt 0.598933 0.832189
vt 0.598933 0.836137
vt 0.509088 0.836137
vt 0.598933 0.988983
vt 0.598933 0.992724
vt 0.596549 0.992724
vt 0.505589 0.838071
vt 0.414343 0.992724
vt 0.409686 0.992724
vt 0.408047 0.672271
vt 0.313926 0.832308
vt 0.315342 0.836255
vt 0.407434 0.992724
vt 0.402782 0.992724
vt 0.311017 0.836966
vt 0.219585 0.992724
vt 0.214954 0.992724
vt 0.307086 0.836255
vt 0.120298 0.836255
vt 0.212702 0.992724
vt 0.208045 0.992724
vt 0.116799 0.838071
vt 0.025802 0.992724
vt 0.023659 0.992724
vt 0.023659 0.988639
vt 0.113261 0.836255
vt 0.023659 0.836255
vt 0.023659 0.832308
vt 0.113418 0.832308
vt 0.023659 0.680282
vt 0.023659 0.672518
vt 0.403880 0.671284
vt 0.405374 0.667376
vt 0.023659 0.340196
vt 0.023659 0.336249
vt 0.210488 0.336249
vt 0.116721 0.176962
vt 0.023659 0.335984
vt 0.618994 0.405636
vt 0.618994 0.400979
vt 0.636253 0.400979
vt 0.636253 0.405636
vt 0.636253 0.394075
vt 0.636253 0.398727
vt 0.618994 0.398727
vt 0.618994 0.394075
vt 0.618994 0.017095
vt 0.618994 0.014952
vt 0.636253 0.014952
vt 0.636253 0.017095
vt 0.636253 0.210878
vt 0.618994 0.210878
vt 0.618994 0.206247
vt 0.636253 0.206247
vt 0.618994 0.203995
vt 0.618994 0.199338
vt 0.636253 0.199338
vt 0.636253 0.203995
vt 0.636253 0.590226
vt 0.618994 0.590226
vt 0.618994 0.587842
vt 0.636253 0.587842
vt 0.307040 0.506725
vt 0.310972 0.507633
vt 0.217244 0.667236
vt 0.214689 0.663801
vt 0.306003 0.506725
vt 0.122258 0.506725
vt 0.212212 0.667236
vt 0.117855 0.506962
vt 0.023614 0.667039
vt 0.023614 0.659164
vt 0.113334 0.506844
vt 0.023614 0.506844
vt 0.023614 0.502896
vt 0.115300 0.502896
vt 0.023614 0.347049
vt 0.023614 0.336109
vt 0.023970 0.340056
vt 0.117776 0.499185
vt 0.211465 0.340056
vt 0.214256 0.342938
vt 0.120214 0.502777
vt 0.308298 0.502777
vt 0.211481 0.992673
vt 0.206935 0.992673
vt 0.116676 0.838247
vt 0.025820 0.992673
vt 0.023614 0.992673
vt 0.023614 0.988654
vt 0.113295 0.836076
vt 0.023614 0.836076
vt 0.023614 0.832128
vt 0.113137 0.832128
vt 0.023614 0.679137
vt 0.023614 0.671448
vt 0.116676 0.830470
vt 0.120214 0.832207
vt 0.308455 0.832207
vt 0.308849 0.831536
vt 0.214767 0.671578
vt 0.219013 0.671183
vt 0.310972 0.827628
vt 0.403087 0.671183
vt 0.407569 0.671578
vt 0.313409 0.831536
vt 0.313842 0.832207
vt 0.501926 0.832207
vt 0.502280 0.836155
vt 0.316161 0.836155
vt 0.408052 0.992673
vt 0.403630 0.992673
vt 0.311522 0.836155
vt 0.310618 0.836155
vt 0.218473 0.992673
vt 0.213896 0.992673
vt 0.306136 0.836155
vt 0.230852 0.836155
vt 0.120017 0.836155
vt 0.439926 0.171177
vt 0.502044 0.171177
vt 0.409641 0.014708
vt 0.414298 0.014708
vt 0.505543 0.169361
vt 0.596503 0.014708
vt 0.598887 0.014708
vt 0.598887 0.018449
vt 0.509042 0.171295
vt 0.598887 0.171295
vt 0.598887 0.175243
vt 0.508924 0.175243
vt 0.598887 0.327529
vt 0.598887 0.335260
vt 0.505464 0.177138
vt 0.502162 0.175124
vt 0.439398 0.175124
vt 0.502044 0.502777
vt 0.408002 0.342938
vt 0.410872 0.340056
vt 0.504442 0.499185
vt 0.598130 0.340056
vt 0.598887 0.336109
vt 0.598887 0.346681
vt 0.506998 0.502777
vt 0.598887 0.502777
vt 0.598887 0.506734
vt 0.508924 0.506962
vt 0.598887 0.659905
vt 0.598887 0.679073
vt 0.509121 0.832286
vt 0.505425 0.830470
vt 0.598602 0.671183
vt 0.598681 0.667236
vt 0.504324 0.506962
vt 0.409967 0.667236
vt 0.407609 0.663801
vt 0.499803 0.506725
vt 0.315021 0.506725
vt 0.315087 0.502777
vt 0.317262 0.502777
vt 0.214909 0.014708
vt 0.219540 0.014708
vt 0.310972 0.170466
vt 0.402736 0.014708
vt 0.407389 0.014708
vt 0.315296 0.171177
vt 0.408865 0.171177
vt 0.313881 0.175124
vt 0.408002 0.335161
vt 0.411933 0.336109
vt 0.405328 0.340056
vt 0.217126 0.340056
vt 0.218266 0.336109
vt 0.403834 0.336148
vt 0.310972 0.178243
vt 0.308416 0.175124
vt 0.120135 0.175124
vt 0.120253 0.171177
vt 0.307040 0.171177
vt 0.207999 0.014708
vt 0.212656 0.014708
vt 0.214256 0.335161
vt 0.310972 0.499856
vt 0.313999 0.502777
vt 0.411697 0.671183
vt 0.598887 0.832286
vt 0.598887 0.836234
vt 0.508963 0.836234
vt 0.598887 0.989087
vt 0.598887 0.992673
vt 0.596392 0.992673
vt 0.505543 0.838247
vt 0.415172 0.992673
vt 0.410467 0.992673
vt 0.210442 0.671183
vt 0.023614 0.671183
vt 0.023614 0.667236
vt 0.404856 0.667236
vt 0.210325 0.336109
vt 0.116754 0.177138
vt 0.023614 0.334914
vt 0.023614 0.327150
vt 0.113373 0.175124
vt 0.023614 0.175124
vt 0.023614 0.171177
vt 0.113216 0.171177
vt 0.023614 0.018793
vt 0.023614 0.014708
vt 0.025757 0.014708
vt 0.116754 0.169361
vt 0.659902 0.496317
vt 0.659902 0.493995
vt 0.670054 0.493995
vt 0.670054 0.496317
vt 0.670054 0.586231
vt 0.670054 0.588340
vt 0.659902 0.588340
vt 0.659902 0.586231
vt 0.659902 0.208345
vt 0.659902 0.202125
vt 0.670054 0.202125
vt 0.670054 0.208345
vt 0.659902 0.403869
vt 0.659902 0.392594
vt 0.670054 0.392594
vt 0.670054 0.403869
vt 0.659902 0.302493
vt 0.659902 0.300166
vt 0.670054 0.300166
vt 0.670054 0.302493
vt 0.659902 0.201626
vt 0.659902 0.197078
vt 0.670054 0.197078
vt 0.670054 0.201626
vt 0.659902 0.107498
vt 0.659902 0.105176
vt 0.670054 0.105176
vt 0.670054 0.107498
vt 0.659902 0.015266
vt 0.659902 0.013066
vt 0.670054 0.013066
vt 0.670054 0.015266
vt 0.659903 0.300248
vt 0.670054 0.300248
vt 0.670054 0.302570
vt 0.659903 0.302570
vt 0.659903 0.392171
vt 0.670054 0.392171
vt 0.670054 0.396803
vt 0.659903 0.396803
vt 0.659903 0.396918
vt 0.670054 0.396918
vt 0.670054 0.399241
vt 0.659903 0.399241
vt 0.659903 0.105119
vt 0.670054 0.105119
vt 0.670054 0.107442
vt 0.659903 0.107442
vt 0.659903 0.013079
vt 0.670054 0.013079
vt 0.670054 0.015482
vt 0.659903 0.015482
vt 0.659903 0.196868
vt 0.670054 0.196868
vt 0.670054 0.201435
vt 0.659903 0.201435
vt 0.670054 0.585988
vt 0.670054 0.588352
vt 0.659903 0.588352
vt 0.659903 0.585988
vt 0.659903 0.493914
vt 0.670054 0.493914
vt 0.670054 0.496236
vt 0.659903 0.496236
vt 0.659903 0.399396
vt 0.670054 0.399396
vt 0.670054 0.403920
vt 0.659903 0.403920
vt 0.659903 0.202138
vt 0.670054 0.202138
vt 0.670054 0.208573
vt 0.659903 0.208573
vt 0.618954 0.194472
vt 0.636212 0.194472
vt 0.618954 0.194327
vt 0.636212 0.194327
vt 0.618954 0.192205
vt 0.636212 0.192205
vt 0.618954 0.104753
vt 0.636212 0.104753
vt 0.618954 0.104871
vt 0.636212 0.104871
vt 0.618954 0.196043
vt 0.636212 0.196043
vt 0.618954 0.106798
vt 0.636212 0.106798
vt 0.618954 0.104872
vt 0.636212 0.104872
vt 0.618954 0.192348
vt 0.636212 0.192348
vt 0.618954 0.192481
vt 0.636212 0.192481
vt 0.618954 0.104675
vt 0.636212 0.104675
vt 0.636212 0.196536
vt 0.618954 0.196536
vt 0.618954 0.015812
vt 0.636212 0.015812
vt 0.618954 0.196517
vt 0.636212 0.196517
vt 0.618954 0.192251
vt 0.636212 0.192251
vt 0.618954 0.104832
vt 0.636212 0.104832
vt 0.636212 0.193833
vt 0.618954 0.193833
vt 0.618954 0.194075
vt 0.636212 0.194075
vt 0.618954 0.104431
vt 0.636212 0.104431
vt 0.618954 0.192167
vt 0.636212 0.192167
vt 0.618954 0.191890
vt 0.636212 0.191890
vt 0.618954 0.104589
vt 0.636212 0.104589
vt 0.636212 0.194079
vt 0.618954 0.194079
vt 0.618954 0.106594
vt 0.636212 0.106594
vt 0.618954 0.191688
vt 0.636212 0.191688
vt 0.618954 0.104628
vt 0.636212 0.104628
vt 0.618954 0.194346
vt 0.636212 0.194346
vt 0.618954 0.104510
vt 0.636212 0.104510
vt 0.618954 0.191683
vt 0.636212 0.191683
vt 0.618954 0.191455
vt 0.636212 0.191455
vt 0.618954 0.104667
vt 0.636212 0.104667
vt 0.618954 0.195519
vt 0.636212 0.195519
vt 0.618954 0.195688
vt 0.636212 0.195688
vt 0.618954 0.196624
vt 0.636212 0.196624
vt 0.618954 0.201695
vt 0.636212 0.201695
vt 0.618954 0.196486
vt 0.636212 0.196486
vt 0.618954 0.200571
vt 0.636212 0.200571
vt 0.618954 0.200590
vt 0.636212 0.200590
vt 0.618954 0.203189
vt 0.636212 0.203189
vt 0.618954 0.198125
vt 0.636212 0.198125
vt 0.618954 0.201619
vt 0.636212 0.201619
vt 0.618954 0.199373
vt 0.636212 0.199373
vt 0.618954 0.197981
vt 0.636212 0.197981
vt 0.618954 0.200476
vt 0.636212 0.200476
vt 0.618954 0.198095
vt 0.636212 0.198095
vt 0.618954 0.199629
vt 0.636212 0.199629
vt 0.618954 0.199569
vt 0.636212 0.199569
vt 0.618954 0.202403
vt 0.636212 0.202403
vt 0.618954 0.200360
vt 0.636212 0.200360
vt 0.618954 0.202993
vt 0.636212 0.202993
vt 0.618954 0.200360
vt 0.636212 0.200360
vt 0.618954 0.197161
vt 0.636212 0.197161
vt 0.618954 0.198653
vt 0.636212 0.198653
vt 0.618954 0.197122
vt 0.636212 0.197122
vt 0.618954 0.015945
vt 0.636212 0.015945
vt 0.618954 0.200666
vt 0.636212 0.200666
vt 0.618954 0.203506
vt 0.636212 0.203506
vt 0.618954 0.200894
vt 0.636212 0.200894
vt 0.618954 0.199997
vt 0.636212 0.199997
vt 0.618954 0.202521
vt 0.636212 0.202521
vt 0.618954 0.200077
vt 0.636212 0.200077
vt 0.618954 0.199159
vt 0.636212 0.199159
vt 0.618954 0.199745
vt 0.636212 0.199745
vt 0.618954 0.201737
vt 0.636212 0.201737
vt 0.618954 0.201300
vt 0.636212 0.201300
vt 0.618954 0.200483
vt 0.636212 0.200483
vt 0.618954 0.203150
vt 0.636212 0.203150
vt 0.618954 0.015686
vt 0.636212 0.015686
vt 0.636212 0.196191
vt 0.618954 0.196191
vt 0.618954 0.125743
vt 0.636212 0.125743
vt 0.618954 0.196584
vt 0.636212 0.196584
vt 0.618954 0.090192
vt 0.636212 0.090192
vt 0.618954 0.196467
vt 0.636212 0.196467
vt 0.618954 0.077285
vt 0.618954 0.108477
vt 0.636212 0.108477
vt 0.618954 0.108087
vt 0.636212 0.108087
vt 0.636212 0.045969
vt 0.618954 0.200571
vt 0.636212 0.200571
vt 0.618954 0.200590
vt 0.636212 0.200590
vt 0.618954 0.140425
vt 0.618954 0.203189
vt 0.636212 0.203189
vt 0.636212 0.077672
vt 0.618954 0.199353
vt 0.636212 0.199353
vt 0.618954 0.201862
vt 0.636212 0.201862
vt 0.618954 0.198567
vt 0.636212 0.198567
vt 0.618954 0.199509
vt 0.636212 0.199509
vt 0.618954 0.199569
vt 0.636212 0.199569
vt 0.618954 0.202167
vt 0.636212 0.202167
vt 0.618954 0.200227
vt 0.636212 0.200227
vt 0.618954 0.200486
vt 0.636212 0.200486
vt 0.618954 0.203110
vt 0.636212 0.203110
vt 0.618954 0.200341
vt 0.636212 0.200341
vt 0.618954 0.018171
vt 0.636212 0.018171
vt 0.636212 0.015996
vt 0.618954 0.199690
vt 0.636212 0.199690
vt 0.618954 0.197241
vt 0.636212 0.197241
vt 0.618954 0.197042
vt 0.636212 0.197042
vt 0.618954 0.199690
vt 0.636212 0.199690
vt 0.618954 0.200894
vt 0.636212 0.200894
vt 0.618954 0.203622
vt 0.636212 0.203622
vt 0.618954 0.200894
vt 0.636212 0.200894
vt 0.618954 0.196378
vt 0.636212 0.196378
vt 0.618954 0.196458
vt 0.636212 0.196458
vt 0.618954 0.198982
vt 0.636212 0.198982
vt 0.618954 0.199725
vt 0.636212 0.199725
vt 0.618954 0.199446
vt 0.636212 0.199446
vt 0.618954 0.201813
vt 0.636212 0.201813
vt 0.618954 0.200522
vt 0.636212 0.200522
vt 0.618954 0.201201
vt 0.636212 0.201201
vt 0.618954 0.015706
vt 0.636212 0.015706
vt 0.618954 0.202993
vt 0.636212 0.202993
vt 0.636212 0.196407
vt 0.618954 0.196407
vt 0.618954 0.196368
vt 0.636212 0.196368
vt 0.618954 0.201027
vt 0.636212 0.201027
vt 0.618954 0.191782
vt 0.636212 0.191782
vt 0.618954 0.193777
vt 0.636212 0.193777
vt 0.618954 0.195725
vt 0.636212 0.195725
vt 0.636212 0.014908
vt 0.618954 0.014908
vt 0.618954 0.194075
vt 0.636212 0.194075
vt 0.618954 0.193833
vt 0.636212 0.193833
vt 0.636212 0.014908
vt 0.618954 0.014908
vt 0.596392 0.992673
vt 0.415172 0.992673
vt 0.505543 0.838247
vt 0.618954 0.587687
vt 0.618954 0.406467
vt 0.636212 0.406467
vt 0.636212 0.587687
vt 0.505589 0.169185
vt 0.415218 0.014759
vt 0.596438 0.014759
vt 0.636212 0.015812
vt 0.636212 0.014908
vt 0.618954 0.014908
vt 0.618954 0.015812
vt 0.618954 0.196536
vt 0.636212 0.196536
vt 0.636212 0.014908
vt 0.618954 0.014908
vt 0.403630 0.992673
vt 0.218473 0.992673
vt 0.310618 0.836155
vt 0.311522 0.836155
vt 0.618954 0.196517
vt 0.636212 0.196517
vt 0.618954 0.209768
vt 0.636212 0.209768
vt 0.636212 0.394924
vt 0.618954 0.394924
vt 0.311568 0.171277
vt 0.310663 0.171277
vt 0.218519 0.014759
vt 0.403675 0.014759
vt 0.618954 0.201027
vt 0.636212 0.201027
vt 0.636212 0.014908
vt 0.618954 0.014908
vt 0.618954 0.196407
vt 0.636212 0.196407
vt 0.636212 0.014908
vt 0.618954 0.014908
vt 0.408052 0.992673
vt 0.316161 0.836155
vt 0.502280 0.836155
vt 0.410467 0.992673
vt 0.618954 0.196368
vt 0.636212 0.196368
vt 0.408097 0.014759
vt 0.410513 0.014759
vt 0.502325 0.171277
vt 0.316207 0.171277
vt 0.618954 0.399346
vt 0.636212 0.399346
vt 0.636212 0.401762
vt 0.618954 0.401762
vt 0.636212 0.125743
vt 0.636212 0.014908
vt 0.618954 0.014908
vt 0.618954 0.125743
vt 0.618954 0.196191
vt 0.636212 0.196191
vt 0.636212 0.014908
vt 0.618954 0.014908
vt 0.211481 0.992673
vt 0.120017 0.836155
vt 0.230852 0.836155
vt 0.306136 0.836155
vt 0.213896 0.992673
vt 0.618954 0.090192
vt 0.636212 0.090192
vt 0.618954 0.196584
vt 0.636212 0.196584
vt 0.306181 0.171277
vt 0.230897 0.171277
vt 0.120063 0.171277
vt 0.211526 0.014759
vt 0.213942 0.014759
vt 0.618954 0.205191
vt 0.618954 0.202775
vt 0.636212 0.202775
vt 0.636212 0.205191
vt 0.618954 0.104832
vt 0.636212 0.104832
vt 0.636212 0.014908
vt 0.618954 0.014908
vt 0.618954 0.192251
vt 0.636212 0.192251
vt 0.636212 0.014908
vt 0.618954 0.014908
vt 0.598887 0.989087
vt 0.508963 0.836234
vt 0.598887 0.836234
vt 0.670054 0.586231
vt 0.659902 0.586231
vt 0.659902 0.496317
vt 0.670054 0.496317
vt 0.509009 0.171198
vt 0.598933 0.018345
vt 0.598933 0.171198
vt 0.113295 0.836076
vt 0.023614 0.988654
vt 0.023614 0.836076
vt 0.636212 0.014908
vt 0.618954 0.014908
vt 0.618954 0.191890
vt 0.636212 0.191890
vt 0.670054 0.496236
vt 0.670054 0.585988
vt 0.659903 0.585988
vt 0.659903 0.496236
vt 0.618954 0.104589
vt 0.636212 0.104589
vt 0.023659 0.171356
vt 0.023659 0.018778
vt 0.113340 0.171356
vt 0.618954 0.200483
vt 0.636212 0.200483
vt 0.636212 0.014908
vt 0.618954 0.014908
vt 0.636212 0.201300
vt 0.618954 0.201300
vt 0.120214 0.832207
vt 0.214767 0.671578
vt 0.308849 0.831536
vt 0.308455 0.832207
vt 0.618954 0.015686
vt 0.636212 0.015686
vt 0.618954 0.203150
vt 0.636212 0.203150
vt 0.308894 0.175896
vt 0.214813 0.335854
vt 0.120259 0.175225
vt 0.308501 0.175225
vt 0.618954 0.201201
vt 0.636212 0.201201
vt 0.636212 0.014908
vt 0.618954 0.014908
vt 0.636212 0.200522
vt 0.618954 0.200522
vt 0.313842 0.832207
vt 0.313409 0.831536
vt 0.407569 0.671578
vt 0.501926 0.832207
vt 0.618954 0.202993
vt 0.636212 0.202993
vt 0.618954 0.015706
vt 0.636212 0.015706
vt 0.407615 0.335854
vt 0.313455 0.175896
vt 0.313887 0.175225
vt 0.501972 0.175225
vt 0.598933 0.175146
vt 0.598933 0.328359
vt 0.509166 0.175146
vt 0.618954 0.192481
vt 0.636212 0.192481
vt 0.636212 0.014908
vt 0.618954 0.014908
vt 0.659902 0.493995
vt 0.659902 0.403869
vt 0.670054 0.403869
vt 0.670054 0.493995
vt 0.618954 0.104675
vt 0.636212 0.104675
vt 0.509121 0.832286
vt 0.598887 0.679073
vt 0.598887 0.832286
vt 0.113137 0.832128
vt 0.023614 0.832128
vt 0.023614 0.679137
vt 0.636212 0.014908
vt 0.618954 0.014908
vt 0.618954 0.104431
vt 0.636212 0.104431
vt 0.670054 0.493914
vt 0.659903 0.493914
vt 0.659903 0.403920
vt 0.670054 0.403920
vt 0.618954 0.192167
vt 0.636212 0.192167
vt 0.023659 0.328295
vt 0.023659 0.175304
vt 0.113182 0.175304
vt 0.618954 0.198982
vt 0.636212 0.198982
vt 0.636212 0.014908
vt 0.618954 0.014908
vt 0.636212 0.196378
vt 0.618954 0.196378
vt 0.403087 0.671183
vt 0.310972 0.827628
vt 0.219013 0.671183
vt 0.618954 0.196458
vt 0.636212 0.196458
vt 0.311017 0.179804
vt 0.403133 0.336249
vt 0.219059 0.336249
vt 0.023659 0.336249
vt 0.023659 0.335984
vt 0.116721 0.176962
vt 0.210488 0.336249
vt 0.618954 0.199159
vt 0.636212 0.199159
vt 0.636212 0.014908
vt 0.618954 0.014908
vt 0.670054 0.399241
vt 0.670054 0.399396
vt 0.659903 0.399396
vt 0.659903 0.399241
vt 0.618954 0.201737
vt 0.636212 0.201737
vt 0.210442 0.671183
vt 0.116676 0.830470
vt 0.023614 0.671448
vt 0.023614 0.671183
vt 0.618954 0.199745
vt 0.636212 0.199745
vt 0.618954 0.200894
vt 0.636212 0.200894
vt 0.636212 0.014908
vt 0.618954 0.014908
vt 0.618954 0.200666
vt 0.636212 0.200666
vt 0.618954 0.014908
vt 0.023614 0.667039
vt 0.117855 0.506962
vt 0.212212 0.667236
vt 0.023614 0.667236
vt 0.618954 0.203506
vt 0.636212 0.203506
vt 0.117900 0.500470
vt 0.023659 0.340393
vt 0.023659 0.340196
vt 0.212257 0.340196
vt 0.659903 0.396803
vt 0.670054 0.396803
vt 0.670054 0.396918
vt 0.659903 0.396918
vt 0.618954 0.200077
vt 0.636212 0.200077
vt 0.636212 0.014908
vt 0.618954 0.014908
vt 0.636212 0.199997
vt 0.618954 0.014908
vt 0.618954 0.199997
vt 0.217244 0.667236
vt 0.310972 0.507633
vt 0.404856 0.667236
vt 0.618954 0.202521
vt 0.636212 0.202521
vt 0.311017 0.499799
vt 0.217289 0.340196
vt 0.404902 0.340196
vt 0.618954 0.200894
vt 0.636212 0.200894
vt 0.636212 0.014908
vt 0.618954 0.014908
vt 0.636212 0.200894
vt 0.618954 0.014908
vt 0.618954 0.200894
vt 0.409967 0.667236
vt 0.504324 0.506962
vt 0.598681 0.667236
vt 0.618954 0.203622
vt 0.636212 0.203622
vt 0.504370 0.500470
vt 0.410013 0.340196
vt 0.598727 0.340196
vt 0.618954 0.199690
vt 0.636212 0.199690
vt 0.636212 0.014908
vt 0.618954 0.014908
vt 0.636212 0.197241
vt 0.618954 0.197241
vt 0.499803 0.506725
vt 0.407609 0.663801
vt 0.315021 0.506725
vt 0.618954 0.014908
vt 0.618954 0.197042
vt 0.636212 0.197042
vt 0.407654 0.343631
vt 0.499849 0.500707
vt 0.315067 0.500707
vt 0.598933 0.347527
vt 0.598933 0.500698
vt 0.508970 0.500470
vt 0.618954 0.104872
vt 0.636212 0.104872
vt 0.636212 0.014908
vt 0.618954 0.014908
vt 0.659902 0.392594
vt 0.659902 0.302493
vt 0.670054 0.302493
vt 0.670054 0.392594
vt 0.618954 0.192348
vt 0.636212 0.192348
vt 0.508924 0.506962
vt 0.598887 0.506734
vt 0.598887 0.659905
vt 0.113334 0.506844
vt 0.023614 0.659164
vt 0.023614 0.506844
vt 0.636212 0.014908
vt 0.618954 0.014908
vt 0.618954 0.191688
vt 0.636212 0.191688
vt 0.670054 0.302570
vt 0.670054 0.392171
vt 0.659903 0.392171
vt 0.659903 0.302570
vt 0.618954 0.104628
vt 0.636212 0.104628
vt 0.618954 0.014908
vt 0.023659 0.500588
vt 0.023659 0.348268
vt 0.113379 0.500588
vt 0.636212 0.198653
vt 0.636212 0.014908
vt 0.618954 0.014908
vt 0.618954 0.198653
vt 0.636212 0.197161
vt 0.618954 0.197161
vt 0.214689 0.663801
vt 0.122258 0.506725
vt 0.306003 0.506725
vt 0.307040 0.506725
vt 0.618954 0.015945
vt 0.636212 0.015945
vt 0.618954 0.014908
vt 0.618954 0.197122
vt 0.636212 0.197122
vt 0.306049 0.500707
vt 0.122304 0.500707
vt 0.214734 0.343631
vt 0.307086 0.500707
vt 0.618954 0.200360
vt 0.636212 0.200360
vt 0.636212 0.014908
vt 0.618954 0.014908
vt 0.636212 0.200341
vt 0.636212 0.014908
vt 0.618954 0.200341
vt 0.313999 0.502777
vt 0.408002 0.342938
vt 0.502044 0.502777
vt 0.317262 0.502777
vt 0.618954 0.199690
vt 0.636212 0.199690
vt 0.618954 0.018171
vt 0.636212 0.018171
vt 0.408047 0.664494
vt 0.314044 0.504655
vt 0.317308 0.504655
vt 0.502090 0.504655
vt 0.115300 0.502896
vt 0.023614 0.502896
vt 0.023614 0.347049
vt 0.636212 0.014908
vt 0.618954 0.014908
vt 0.618954 0.106594
vt 0.636212 0.106594
vt 0.670054 0.208573
vt 0.670054 0.300248
vt 0.659903 0.300248
vt 0.659903 0.208573
vt 0.618954 0.195725
vt 0.636212 0.195725
vt 0.023659 0.660383
vt 0.023659 0.504536
vt 0.115345 0.504536
vt 0.598933 0.504655
vt 0.598933 0.660751
vt 0.507043 0.504655
vt 0.618954 0.196043
vt 0.636212 0.196043
vt 0.636212 0.014908
vt 0.618954 0.014908
vt 0.659902 0.300166
vt 0.659902 0.208345
vt 0.670054 0.208345
vt 0.670054 0.300166
vt 0.618954 0.106798
vt 0.636212 0.106798
vt 0.636212 0.014908
vt 0.506998 0.502777
vt 0.598887 0.346681
vt 0.598887 0.502777
vt 0.618954 0.200360
vt 0.636212 0.200360
vt 0.636212 0.014908
vt 0.618954 0.014908
vt 0.636212 0.014908
vt 0.120214 0.502777
vt 0.214256 0.342938
vt 0.308298 0.502777
vt 0.618954 0.202993
vt 0.636212 0.202993
vt 0.214301 0.664494
vt 0.120259 0.504655
vt 0.308344 0.504655
vt 0.618954 0.203110
vt 0.636212 0.203110
vt 0.636212 0.014908
vt 0.618954 0.014908
vt 0.636212 0.200227
vt 0.636212 0.014908
vt 0.618954 0.200227
vt 0.405328 0.340056
vt 0.310972 0.499856
vt 0.217126 0.340056
vt 0.618954 0.200486
vt 0.636212 0.200486
vt 0.311017 0.507576
vt 0.405374 0.667376
vt 0.217171 0.667376
vt 0.618954 0.202403
vt 0.636212 0.202403
vt 0.636212 0.014908
vt 0.618954 0.014908
vt 0.636212 0.199629
vt 0.636212 0.014908
vt 0.618954 0.199629
vt 0.211465 0.340056
vt 0.117776 0.499185
vt 0.023970 0.340056
vt 0.618954 0.199569
vt 0.636212 0.199569
vt 0.117822 0.508247
vt 0.211510 0.667376
vt 0.024015 0.667376
vt 0.618954 0.202167
vt 0.636212 0.202167
vt 0.636212 0.014908
vt 0.618954 0.014908
vt 0.636212 0.199509
vt 0.636212 0.014908
vt 0.618954 0.199509
vt 0.598130 0.340056
vt 0.504442 0.499185
vt 0.410872 0.340056
vt 0.618954 0.199569
vt 0.636212 0.199569
vt 0.504488 0.508247
vt 0.598176 0.667376
vt 0.410917 0.667376
vt 0.636212 0.014908
vt 0.618954 0.014908
vt 0.618954 0.198567
vt 0.636212 0.198567
vt 0.636212 0.199353
vt 0.618954 0.199353
vt 0.598887 0.336109
vt 0.411933 0.336109
vt 0.505464 0.177138
vt 0.598887 0.335260
vt 0.670054 0.202125
vt 0.659902 0.202125
vt 0.659902 0.201626
vt 0.670054 0.201626
vt 0.618954 0.201862
vt 0.636212 0.201862
vt 0.505510 0.830294
vt 0.411979 0.671323
vt 0.598933 0.671323
vt 0.598933 0.672172
vt 0.618954 0.199373
vt 0.636212 0.199373
vt 0.636212 0.014908
vt 0.618954 0.014908
vt 0.618954 0.198125
vt 0.636212 0.198125
vt 0.023614 0.334914
vt 0.116754 0.177138
vt 0.210325 0.336109
vt 0.023614 0.336109
vt 0.618954 0.201619
vt 0.636212 0.201619
vt 0.116799 0.830294
vt 0.023659 0.672518
vt 0.023659 0.671323
vt 0.210370 0.671323
vt 0.659903 0.201435
vt 0.670054 0.201435
vt 0.670054 0.202138
vt 0.659903 0.202138
vt 0.618954 0.198095
vt 0.636212 0.198095
vt 0.636212 0.014908
vt 0.618954 0.014908
vt 0.636212 0.197981
vt 0.618954 0.197981
vt 0.218266 0.336109
vt 0.310972 0.178243
vt 0.403834 0.336148
vt 0.618954 0.200476
vt 0.636212 0.200476
vt 0.311017 0.829189
vt 0.218312 0.671323
vt 0.403880 0.671284
vt 0.618954 0.203189
vt 0.636212 0.203189
vt 0.636212 0.014908
vt 0.618954 0.014908
vt 0.636212 0.200571
vt 0.618954 0.200571
vt 0.308416 0.175124
vt 0.214256 0.335161
vt 0.120135 0.175124
vt 0.618954 0.200590
vt 0.636212 0.200590
vt 0.214301 0.672271
vt 0.308462 0.832308
vt 0.120181 0.832308
vt 0.618954 0.203189
vt 0.636212 0.203189
vt 0.636212 0.014908
vt 0.618954 0.014908
vt 0.636212 0.200571
vt 0.618954 0.200571
vt 0.502162 0.175124
vt 0.408002 0.335161
vt 0.313881 0.175124
vt 0.618954 0.200590
vt 0.636212 0.200590
vt 0.313926 0.832308
vt 0.408047 0.672271
vt 0.502208 0.832308
vt 0.113373 0.175124
vt 0.023614 0.327150
vt 0.023614 0.175124
vt 0.636212 0.014908
vt 0.618954 0.014908
vt 0.618954 0.191455
vt 0.636212 0.191455
vt 0.670054 0.107442
vt 0.670054 0.196868
vt 0.659903 0.196868
vt 0.659903 0.107442
vt 0.618954 0.104667
vt 0.636212 0.104667
vt 0.023659 0.832308
vt 0.023659 0.680282
vt 0.113418 0.832308
vt 0.113216 0.171177
vt 0.023614 0.171177
vt 0.023614 0.018793
vt 0.636212 0.014908
vt 0.618954 0.014908
vt 0.618954 0.104510
vt 0.636212 0.104510
vt 0.670054 0.015482
vt 0.670054 0.105119
vt 0.659903 0.105119
vt 0.659903 0.015482
vt 0.618954 0.014908
vt 0.618954 0.191683
vt 0.636212 0.191683
vt 0.636212 0.014908
vt 0.023659 0.988639
vt 0.023659 0.836255
vt 0.113261 0.836255
vt 0.409686 0.992724
vt 0.407434 0.992724
vt 0.315342 0.836255
vt 0.408910 0.836255
vt 0.502090 0.836255
vt 0.618954 0.196467
vt 0.636212 0.196467
vt 0.636212 0.014908
vt 0.618954 0.014908
vt 0.618994 0.398727
vt 0.636253 0.398727
vt 0.636253 0.400979
vt 0.618994 0.400979
vt 0.618954 0.014908
vt 0.618954 0.196624
vt 0.636212 0.196624
vt 0.636212 0.014908
vt 0.618954 0.108087
vt 0.636212 0.108087
vt 0.618954 0.108477
vt 0.636212 0.108477
vt 0.315296 0.171177
vt 0.407389 0.014708
vt 0.409641 0.014708
vt 0.502044 0.171177
vt 0.408865 0.171177
vt 0.214954 0.992724
vt 0.212702 0.992724
vt 0.120298 0.836255
vt 0.307086 0.836255
vt 0.618954 0.196624
vt 0.636212 0.196624
vt 0.636212 0.014908
vt 0.618954 0.014908
vt 0.618994 0.206247
vt 0.618994 0.203995
vt 0.636253 0.203995
vt 0.636253 0.206247
vt 0.618954 0.014908
vt 0.618954 0.196486
vt 0.636212 0.196486
vt 0.636212 0.014908
vt 0.618954 0.201695
vt 0.636212 0.201695
vt 0.120253 0.171177
vt 0.212656 0.014708
vt 0.214909 0.014708
vt 0.307040 0.171177
vt 0.402782 0.992724
vt 0.219585 0.992724
vt 0.311017 0.836966
vt 0.618954 0.195519
vt 0.636212 0.195519
vt 0.636212 0.014908
vt 0.618954 0.014908
vt 0.618994 0.394075
vt 0.618994 0.210878
vt 0.636253 0.210878
vt 0.636253 0.394075
vt 0.618954 0.014908
vt 0.618954 0.195688
vt 0.636212 0.195688
vt 0.636212 0.014908
vt 0.310972 0.170466
vt 0.219540 0.014708
vt 0.402736 0.014708
vt 0.208045 0.992724
vt 0.025802 0.992724
vt 0.116799 0.838071
vt 0.618954 0.194346
vt 0.636212 0.194346
vt 0.636212 0.014908
vt 0.618954 0.014908
vt 0.618994 0.017095
vt 0.636253 0.017095
vt 0.636253 0.199338
vt 0.618994 0.199338
vt 0.618954 0.014908
vt 0.618954 0.194472
vt 0.636212 0.194472
vt 0.636212 0.014908
vt 0.116754 0.169361
vt 0.025757 0.014708
vt 0.207999 0.014708
vt 0.618954 0.194472
vt 0.636212 0.194472
vt 0.636212 0.014908
vt 0.618954 0.014908
vt 0.618954 0.014908
vt 0.618954 0.194327
vt 0.636212 0.194327
vt 0.636212 0.014908
vt 0.596549 0.992724
vt 0.414343 0.992724
vt 0.505589 0.838071
vt 0.618994 0.587842
vt 0.618994 0.405636
vt 0.636253 0.405636
vt 0.636253 0.587842
vt 0.505543 0.169361
vt 0.414298 0.014708
vt 0.596503 0.014708
vn -0.000000 -1.000000 -0.000000
vn -0.000000 0.000000 1.000000
vn -0.000000 1.000000 -0.000000
vn -0.000000 0.000000 -1.000000
vn 1.000000 0.000000 -0.000000
vn -1.000000 0.000000 -0.000000
vn 0.861300 0.508100 -0.000000
vn -0.862000 0.507000 -0.000000
vn 0.862100 -0.506700 -0.000000
vn 0.861800 -0.507300 -0.000000
vn 0.002500 -1.000000 -0.000000
vn 0.861900 0.507000 -0.000000
vn 0.862800 -0.505500 -0.000000
vn -0.861800 -0.507200 -0.000000
vn 0.861900 0.507100 -0.000000
vn 0.863100 -0.505100 -0.000000
vn -0.861900 -0.507100 -0.000000
vn -0.863100 -0.505000 -0.000000
vn -0.862100 0.506700 -0.000000
vn 0.861900 -0.507100 -0.000000
vn -0.861600 0.507500 -0.000000
vn -0.861300 0.508100 -0.000000
vn -0.862000 -0.506900 -0.000000
vn -0.861100 0.508400 -0.000000
vn 0.862400 0.506200 -0.000000
vn -0.861600 0.507600 -0.000000
vn 0.861100 -0.508500 -0.000000
vn -0.861700 -0.507400 -0.000000
vn 0.862000 0.506900 -0.000000
vn -0.861900 0.507100 -0.000000
vn 0.861100 -0.508400 -0.000000
vn -0.861800 -0.507300 -0.000000
vn 0.862300 -0.506400 -0.000000
vn 0.000200 1.000000 -0.000000
vn 0.861500 0.507800 -0.000000
vn -0.861700 0.507400 -0.000000
vn 0.861900 0.507200 -0.000000
vn -0.862000 0.506800 -0.000000
vn -0.861900 -0.507000 -0.000000
vn 0.863100 0.505100 -0.000000
vn -0.861800 0.507300 -0.000000
vn -0.862000 -0.507000 -0.000000
vn -0.862800 0.505500 -0.000000
vn 0.863400 0.504500 -0.000000
vn -0.861500 0.507700 -0.000000
vn 0.861800 -0.507200 -0.000000
vn -0.861100 -0.508500 -0.000000
vn -0.861000 -0.508700 -0.000000
vn 0.862300 0.506400 -0.000000
vn 0.862000 -0.506900 -0.000000
vn -0.862400 0.506200 -0.000000
vn 0.862100 0.506700 -0.000000
vn -0.863200 0.504900 -0.000000
vn -0.862200 -0.506500 -0.000000
vn 0.840600 0.541700 -0.000000
vn 0.862400 0.506300 -0.000000
vn -0.862600 0.506000 -0.000000
vn 0.861000 0.508600 -0.000000
vn -0.863300 -0.504600 -0.000000
vn 0.861900 0.507100 -0.000000
vn -0.863100 0.505100 -0.000000
vn -0.000000 0.000000 -1.000000
vn -0.000000 -1.000000 -0.000000
vn -0.000000 0.000000 1.000000
vn -0.000000 1.000000 -0.000000
vn -0.861800 0.507300 -0.000000
vn -0.000000 0.000000 -1.000000
vn 0.861800 0.507200 -0.000000
vn -0.000000 -1.000000 -0.000000
vn -0.000000 0.000000 1.000000
vn -0.000000 1.000000 -0.000000
vn -0.862400 -0.506300 -0.000000
vn -0.000000 0.000000 -1.000000
vn 0.862600 -0.506000 -0.000000
vn -0.000000 0.000000 1.000000
vn -0.000000 -1.000000 -0.000000
vn -0.000000 1.000000 -0.000000
vn -0.863400 -0.504500 -0.000000
vn -0.000000 0.000000 -1.000000
vn 0.861500 -0.507700 -0.000000
vn -0.000000 0.000000 1.000000
vn -0.000000 -1.000000 -0.000000
vn -0.000000 1.000000 -0.000000
vn -0.861900 -0.507100 -0.000000
vn -0.000000 0.000000 -1.000000
vn 1.000000 0.000000 -0.000000
vn -0.000000 0.000000 1.000000
vn -0.000000 0.000000 -1.000000
vn 0.862100 -0.506700 -0.000000
vn -1.000000 0.000000 -0.000000
vn -0.000000 1.000000 -0.000000
vn -0.000000 0.000000 1.000000
vn 0.862000 0.507000 -0.000000
vn -0.861800 0.507300 -0.000000
vn -0.000000 0.000000 -1.000000
vn 0.862800 -0.505500 -0.000000
vn -0.000000 -1.000000 -0.000000
vn -0.000000 0.000000 1.000000
vn 0.862200 0.506500 -0.000000
vn -0.861800 0.507300 -0.000000
vn -0.000000 0.000000 -1.000000
vn -0.000000 -1.000000 -0.000000
vn -0.840600 -0.541700 -0.000000
vn -0.000000 0.000000 1.000000
vn -0.000000 0.000000 1.000000
vn -0.862800 0.505500 -0.000000
vn 1.000000 0.000000 -0.000000
vn -0.000000 -1.000000 -0.000000
vn -0.000000 0.000000 -1.000000
vn -0.000000 0.000000 -1.000000
vn -0.000000 -1.000000 -0.000000
vn -1.000000 0.000000 -0.000000
vn 0.863100 0.505000 -0.000000
vn -0.000000 0.000000 1.000000
vn -0.000000 1.000000 -0.000000
vn -0.862100 -0.506700 -0.000000
vn -0.000000 0.000000 -1.000000
vn 0.861700 -0.507400 -0.000000
vn -0.000000 0.000000 1.000000
vn -0.000000 0.000000 1.000000
vn -0.863100 -0.505100 -0.000000
vn -1.000000 0.000000 -0.000000
vn -0.000000 1.000000 -0.000000
vn -0.000000 0.000000 -1.000000
vn 0.861800 -0.507300 -0.000000
vn 0.861800 0.507300 -0.000000
vn -0.861800 0.507300 -0.000000
vn -0.000000 0.000000 -1.000000
vn -0.000000 -1.000000 -0.000000
vn -0.000000 0.000000 1.000000
vn -1.000000 0.000000 -0.000000
vn 0.861900 0.507000 -0.000000
vn -0.862300 0.506400 -0.000000
vn -0.000000 0.000000 -1.000000
vn -0.000000 -1.000000 -0.000000
vn -0.000000 0.000000 1.000000
vn 0.861800 0.507300 -0.000000
vn -0.861800 0.507300 -0.000000
vn -0.000000 0.000000 -1.000000
vn -0.000000 -1.000000 -0.000000
vn -0.000000 0.000000 1.000000
vn -0.000000 1.000000 -0.000000
vn -0.861500 -0.507800 -0.000000
vn -0.000000 0.000000 -1.000000
vn 0.862400 -0.506200 -0.000000
vn -0.000000 0.000000 1.000000
vn -0.000000 0.000000 1.000000
vn -0.002500 1.000000 -0.000000
vn 1.000000 0.000000 -0.000000
vn -0.861900 -0.507000 -0.000000
vn -0.000000 0.000000 -1.000000
vn -0.000000 0.000000 -1.000000
vn 0.861600 -0.507500 -0.000000
vn -1.000000 0.000000 -0.000000
vn -0.000000 1.000000 -0.000000
vn -0.000000 0.000000 1.000000
vn -0.000000 1.000000 -0.000000
vn -0.861900 -0.507200 -0.000000
vn -0.000000 0.000000 -1.000000
vn 0.862000 -0.506800 -0.000000
vn -0.000000 0.000000 1.000000
vn 0.861900 0.507100 -0.000000
vn -0.862000 0.506900 -0.000000
vn -0.000000 0.000000 -1.000000
vn -0.000000 -1.000000 -0.000000
vn -0.000000 0.000000 1.000000
vn -0.000000 0.000000 -1.000000
vn -0.000000 -1.000000 -0.000000
vn -1.000000 0.000000 -0.000000
vn 0.861900 0.507100 -0.000000
vn -0.000000 0.000000 1.000000
vn -0.000000 0.000000 1.000000
vn -0.861800 0.507300 -0.000000
vn 1.000000 0.000000 -0.000000
vn -0.000000 -1.000000 -0.000000
vn -0.000000 0.000000 -1.000000
vn 0.861900 0.507100 -0.000000
vn -0.861900 0.507100 -0.000000
vn -0.000000 0.000000 -1.000000
vn -0.000000 -1.000000 -0.000000
vn -0.000000 0.000000 1.000000
vn -0.000000 1.000000 -0.000000
vn -0.862300 -0.506400 -0.000000
vn -0.000000 0.000000 -1.000000
vn 0.861100 -0.508400 -0.000000
vn -0.000000 0.000000 1.000000
vn -0.000000 1.000000 -0.000000
vn -0.861500 -0.507800 -0.000000
vn -0.000000 0.000000 -1.000000
vn 0.861700 -0.507400 -0.000000
vn -0.000000 0.000000 1.000000
vn -0.000000 1.000000 -0.000000
vn -0.862000 -0.506900 -0.000000
vn -0.000000 0.000000 -1.000000
vn 0.861700 -0.507400 -0.000000
vn -0.000000 0.000000 1.000000
vn 0.861000 0.508700 -0.000000
vn -0.861900 0.507100 -0.000000
vn -0.000000 0.000000 -1.000000
vn 1.000000 0.000000 -0.000000
vn -0.000000 -1.000000 -0.000000
vn -0.000000 0.000000 1.000000
vn 0.861800 0.507300 -0.000000
vn -0.861100 0.508400 -0.000000
vn -0.000000 0.000000 -1.000000
vn -0.000000 -1.000000 -0.000000
vn -0.000000 0.000000 1.000000
vn -1.000000 0.000000 -0.000000
vn 0.862000 0.506900 -0.000000
vn -0.862300 0.506400 -0.000000
vn -0.000000 0.000000 -1.000000
vn -0.000200 -1.000000 -0.000000
vn -0.000000 0.000000 1.000000
vn -0.000000 1.000000 -0.000000
vn -0.862000 -0.506900 -0.000000
vn -0.000000 0.000000 -1.000000
vn 0.861900 -0.507100 -0.000000
vn -0.000000 0.000000 1.000000
vn -0.000000 1.000000 -0.000000
vn -0.862000 -0.506900 -0.000000
vn -0.000000 0.000000 -1.000000
vn 0.861900 -0.507100 -0.000000
vn -0.000000 0.000000 1.000000
vn -0.000000 0.000000 -1.000000
vn 0.861100 -0.508400 -0.000000
vn -1.000000 0.000000 -0.000000
vn -0.000000 1.000000 -0.000000
vn -0.000000 0.000000 1.000000
vn -0.000000 0.000000 -1.000000
vn -0.000000 -1.000000 -0.000000
vn -1.000000 0.000000 -0.000000
vn 0.862000 0.506900 -0.000000
vn -0.000000 0.000000 1.000000
vn -0.000000 0.000000 1.000000
vn -0.861800 0.507200 -0.000000
vn -0.000000 1.000000 -0.000000
vn 0.861100 0.508500 -0.000000
vn -0.000000 -1.000000 -0.000000
vn -0.000000 0.000000 -1.000000
vn -0.000000 0.000000 1.000000
vn -0.861100 0.508500 -0.000000
vn -0.000000 1.000000 -0.000000
vn 0.861700 0.507400 -0.000000
vn -0.000000 -1.000000 -0.000000
vn -0.000000 0.000000 -1.000000
vn -0.000000 0.000000 1.000000
vn -0.862400 -0.506200 -0.000000
vn -0.000000 1.000000 -0.000000
vn 0.861600 -0.507600 -0.000000
vn -0.000000 0.000000 -1.000000
vn -0.000000 0.000000 1.000000
vn -0.861900 -0.507100 -0.000000
vn -0.000000 1.000000 -0.000000
vn 0.861300 -0.508100 -0.000000
vn -0.000000 0.000000 -1.000000
vn -0.861300 -0.508100 -0.000000
vn 0.862000 -0.507000 -0.000000
vn -0.000000 0.000000 1.000000
vn -0.000000 1.000000 -0.000000
vn -0.000000 0.000000 -1.000000
mtllib silbarn_crystal.mtl
o silbarn
s 0
usemtl initialShadingGroup
f 19/1/1 3/2/1 1/3/1 10/4/1
f 24/5/1 14/6/1 15/7/1 25/8/1
f 27/9/1 26/10/1 16/11/1 17/12/1
f 2/13/1 4/14/1 28/15/1 18/16/1
f 21/17/1 20/18/1 9/19/1 11/20/1
f 22/21/1 12/22/1 13/23/1 23/24/1
f 145/25/2 153/26/2 154/27/2
f 145/25/2 154/27/2 157/28/2
f 145/25/2 157/28/2 144/29/2
f 158/30/2 125/31/2 138/32/2
f 158/30/2 138/32/2 143/33/2
f 158/30/2 143/33/2 142/34/2
f 158/30/2 142/34/2 124/35/2
f 158/30/2 124/35/2 113/36/2
f 158/30/2 113/36/2 118/37/2
f 158/30/2 118/37/2 129/38/2
f 158/30/2 129/38/2 99/39/2
f 158/30/2 99/39/2 100/40/2
f 158/30/2 100/40/2 123/41/2
f 158/30/2 123/41/2 126/42/2
f 158/30/2 126/42/2 159/43/2
f 131/44/2 130/45/2 116/46/2
f 131/44/2 116/46/2 134/47/2
f 131/44/2 134/47/2 135/48/2
f 131/44/2 135/48/2 159/43/2
f 131/44/2 159/43/2 115/49/2
f 131/44/2 115/49/2 126/42/2
f 131/44/2 126/42/2 123/41/2
f 131/44/2 123/41/2 119/50/2
f 131/44/2 119/50/2 100/40/2
f 131/44/2 100/40/2 99/39/2
f 131/44/2 99/39/2 98/51/2
f 131/44/2 98/51/2 110/52/2
f 131/44/2 110/52/2 101/53/2
f 131/44/2 101/53/2 102/54/2
f 131/44/2 102/54/2 111/55/2
f 131/44/2 111/55/2 103/56/2
f 131/44/2 103/56/2 161/57/2
f 131/44/2 161/57/2 117/58/2
f 75/59/2 55/60/2 54/61/2
f 75/59/2 54/61/2 45/62/2
f 75/59/2 45/62/2 39/63/2
f 75/59/2 39/63/2 48/64/2
f 75/59/2 48/64/2 50/65/2
f 75/59/2 50/65/2 47/66/2
f 75/59/2 47/66/2 38/67/2
f 75/59/2 38/67/2 33/68/2
f 75/59/2 33/68/2 57/69/2
f 75/59/2 57/69/2 35/70/2
f 75/59/2 35/70/2 30/71/2
f 75/59/2 30/71/2 31/72/2
f 75/59/2 31/72/2 34/73/2
f 75/59/2 34/73/2 37/74/2
f 75/59/2 37/74/2 22/75/2
f 75/59/2 22/75/2 23/76/2
f 75/59/2 23/76/2 36/77/2
f 75/59/2 36/77/2 40/78/2
f 75/59/2 40/78/2 24/79/2
f 75/59/2 24/79/2 25/80/2
f 75/59/2 25/80/2 42/81/2
f 75/59/2 42/81/2 70/82/2
f 75/59/2 70/82/2 60/83/2
f 75/59/2 60/83/2 41/84/2
f 75/59/2 41/84/2 46/85/2
f 75/59/2 46/85/2 49/86/2
f 75/59/2 49/86/2 56/87/2
f 75/59/2 56/87/2 85/88/2
f 56/87/2 49/86/2 60/83/2
f 56/87/2 60/83/2 70/82/2
f 56/87/2 70/82/2 26/89/2
f 56/87/2 26/89/2 27/90/2
f 56/87/2 27/90/2 71/91/2
f 56/87/2 71/91/2 28/92/2
f 56/87/2 28/92/2 4/93/2
f 56/87/2 4/93/2 88/94/2
f 56/87/2 88/94/2 68/95/2
f 56/87/2 68/95/2 87/96/2
f 56/87/2 87/96/2 86/97/2
f 56/87/2 86/97/2 67/98/2
f 56/87/2 67/98/2 74/99/2
f 56/87/2 74/99/2 73/100/2
f 56/87/2 73/100/2 66/101/2
f 56/87/2 66/101/2 84/102/2
f 56/87/2 84/102/2 83/103/2
f 56/87/2 83/103/2 65/104/2
f 56/87/2 65/104/2 82/105/2
f 56/87/2 82/105/2 80/106/2
f 56/87/2 80/106/2 81/107/2
f 56/87/2 81/107/2 72/108/2
f 56/87/2 72/108/2 52/109/2
f 56/87/2 52/109/2 53/110/2
f 56/87/2 53/110/2 58/111/2
f 56/87/2 58/111/2 43/112/2
f 56/87/2 43/112/2 44/113/2
f 56/87/2 44/113/2 45/62/2
f 56/87/2 45/62/2 59/114/2
f 56/87/2 59/114/2 54/61/2
f 56/87/2 54/61/2 55/60/2
f 56/87/2 55/60/2 64/115/2
f 56/87/2 64/115/2 75/59/2
f 56/87/2 75/59/2 85/88/2
f 56/87/2 85/88/2 69/116/2
f 104/117/2 106/118/2 91/119/2
f 104/117/2 91/119/2 90/120/2
f 104/117/2 90/120/2 105/121/2
f 104/117/2 105/121/2 92/122/2
f 104/117/2 92/122/2 3/123/2
f 104/117/2 3/123/2 19/124/2
f 104/117/2 19/124/2 29/125/2
f 104/117/2 29/125/2 20/126/2
f 104/117/2 20/126/2 21/127/2
f 104/117/2 21/127/2 31/72/2
f 104/117/2 31/72/2 30/71/2
f 104/117/2 30/71/2 33/68/2
f 104/117/2 33/68/2 38/67/2
f 104/117/2 38/67/2 50/65/2
f 104/117/2 50/65/2 48/64/2
f 104/117/2 48/64/2 32/128/2
f 104/117/2 32/128/2 39/63/2
f 104/117/2 39/63/2 45/62/2
f 104/117/2 45/62/2 44/113/2
f 104/117/2 44/113/2 53/110/2
f 104/117/2 53/110/2 52/109/2
f 104/117/2 52/109/2 81/107/2
f 104/117/2 81/107/2 80/106/2
f 104/117/2 80/106/2 51/129/2
f 104/117/2 51/129/2 62/130/2
f 104/117/2 62/130/2 89/131/2
f 104/117/2 89/131/2 79/132/2
f 104/117/2 79/132/2 61/133/2
f 104/117/2 61/133/2 78/134/2
f 104/117/2 78/134/2 77/135/2
f 104/117/2 77/135/2 63/136/2
f 104/117/2 63/136/2 76/137/2
f 104/117/2 76/137/2 6/138/2
f 104/117/2 6/138/2 151/139/2
f 104/117/2 151/139/2 152/140/2
f 104/117/2 152/140/2 149/141/2
f 104/117/2 149/141/2 150/142/2
f 104/117/2 150/142/2 154/27/2
f 104/117/2 154/27/2 153/26/2
f 104/117/2 153/26/2 148/143/2
f 104/117/2 148/143/2 140/144/2
f 104/117/2 140/144/2 145/25/2
f 104/117/2 145/25/2 144/29/2
f 104/117/2 144/29/2 139/145/2
f 104/117/2 139/145/2 156/146/2
f 104/117/2 156/146/2 155/147/2
f 104/117/2 155/147/2 141/148/2
f 104/117/2 141/148/2 136/149/2
f 104/117/2 136/149/2 137/150/2
f 104/117/2 137/150/2 133/151/2
f 104/117/2 133/151/2 112/152/2
f 104/117/2 112/152/2 128/153/2
f 104/117/2 128/153/2 127/154/2
f 104/117/2 127/154/2 114/155/2
f 104/117/2 114/155/2 94/156/2
f 104/117/2 94/156/2 5/157/2
f 104/117/2 5/157/2 93/158/2
f 104/117/2 93/158/2 108/159/2
f 104/117/2 108/159/2 95/160/2
f 104/117/2 95/160/2 96/161/2
f 104/117/2 96/161/2 109/162/2
f 104/117/2 109/162/2 97/163/2
f 104/117/2 97/163/2 160/164/2
f 104/117/2 160/164/2 118/37/2
f 104/117/2 118/37/2 113/36/2
f 104/117/2 113/36/2 142/34/2
f 104/117/2 142/34/2 143/33/2
f 104/117/2 143/33/2 146/165/2
f 104/117/2 146/165/2 138/32/2
f 104/117/2 138/32/2 125/31/2
f 104/117/2 125/31/2 147/166/2
f 104/117/2 147/166/2 158/30/2
f 104/117/2 158/30/2 159/43/2
f 104/117/2 159/43/2 135/48/2
f 104/117/2 135/48/2 130/45/2
f 104/117/2 130/45/2 131/44/2
f 104/117/2 131/44/2 120/167/2
f 104/117/2 120/167/2 121/168/2
f 104/117/2 121/168/2 132/169/2
f 104/117/2 132/169/2 107/170/2
f 104/117/2 107/170/2 122/171/2
f 169/172/3 170/173/3 150/174/3 149/175/3
f 155/176/3 156/177/3 166/178/3 167/179/3
f 162/180/3 7/181/3 5/182/3 94/183/3
f 136/184/3 171/185/3 163/186/3 137/187/3
f 164/188/3 165/189/3 127/190/3 128/191/3
f 6/192/3 8/193/3 168/194/3 151/195/3
f 276/196/4 294/197/4 268/198/4 271/199/4
f 276/196/4 278/200/4 259/201/4
f 276/196/4 259/201/4 271/199/4
f 276/196/4 271/199/4 270/202/4
f 276/196/4 270/202/4 257/203/4
f 276/196/4 257/203/4 263/204/4
f 276/196/4 263/204/4 246/205/4
f 276/196/4 246/205/4 255/206/4
f 276/196/4 255/206/4 244/207/4
f 276/196/4 244/207/4 245/208/4
f 276/196/4 245/208/4 254/209/4
f 276/196/4 254/209/4 242/210/4
f 276/196/4 242/210/4 240/211/4
f 276/196/4 240/211/4 243/212/4
f 276/196/4 243/212/4 260/213/4
f 276/196/4 260/213/4 272/214/4
f 276/196/4 272/214/4 274/215/4
f 276/196/4 274/215/4 258/216/4
f 276/196/4 258/216/4 277/217/4
f 11/218/4 9/219/4 256/220/4
f 11/218/4 256/220/4 10/221/4
f 11/218/4 10/221/4 1/222/4
f 11/218/4 1/222/4 233/223/4
f 11/218/4 233/223/4 251/224/4
f 11/218/4 251/224/4 234/225/4
f 11/218/4 234/225/4 235/226/4
f 11/218/4 235/226/4 252/227/4
f 11/218/4 252/227/4 247/228/4
f 11/218/4 247/228/4 266/229/4
f 11/218/4 266/229/4 253/230/4
f 11/218/4 253/230/4 261/231/4
f 11/218/4 261/231/4 279/232/4
f 11/218/4 279/232/4 283/233/4
f 11/218/4 283/233/4 267/234/4
f 11/218/4 267/234/4 269/235/4
f 11/218/4 269/235/4 284/236/4
f 11/218/4 284/236/4 286/237/4
f 11/218/4 286/237/4 290/238/4
f 11/218/4 290/238/4 285/239/4
f 11/218/4 285/239/4 288/240/4
f 11/218/4 288/240/4 292/241/4
f 11/218/4 292/241/4 293/242/4
f 11/218/4 293/242/4 287/243/4
f 11/218/4 287/243/4 15/244/4
f 11/218/4 15/244/4 14/245/4
f 11/218/4 14/245/4 282/246/4
f 11/218/4 282/246/4 295/247/4
f 11/218/4 295/247/4 13/248/4
f 11/218/4 13/248/4 12/249/4
f 11/218/4 12/249/4 281/250/4
f 11/218/4 281/250/4 280/251/4
f 11/218/4 280/251/4 262/252/4
f 203/253/4 204/254/4 170/255/4
f 203/253/4 170/255/4 169/256/4
f 203/253/4 169/256/4 209/257/4
f 203/253/4 209/257/4 168/258/4
f 203/253/4 168/258/4 8/259/4
f 203/253/4 8/259/4 216/260/4
f 203/253/4 216/260/4 207/261/4
f 203/253/4 207/261/4 217/262/4
f 203/253/4 217/262/4 218/263/4
f 203/253/4 218/263/4 208/264/4
f 203/253/4 208/264/4 219/265/4
f 203/253/4 219/265/4 232/266/4
f 203/253/4 232/266/4 210/267/4
f 203/253/4 210/267/4 205/268/4
f 203/253/4 205/268/4 198/269/4
f 200/270/4 191/271/4 189/272/4
f 200/270/4 189/272/4 206/273/4
f 200/270/4 206/273/4 222/274/4
f 200/270/4 222/274/4 220/275/4
f 200/270/4 220/275/4 221/276/4
f 200/270/4 221/276/4 212/277/4
f 200/270/4 212/277/4 223/278/4
f 200/270/4 223/278/4 224/279/4
f 200/270/4 224/279/4 211/280/4
f 200/270/4 211/280/4 225/281/4
f 200/270/4 225/281/4 226/282/4
f 200/270/4 226/282/4 213/283/4
f 200/270/4 213/283/4 214/284/4
f 200/270/4 214/284/4 228/285/4
f 200/270/4 228/285/4 227/286/4
f 200/270/4 227/286/4 201/287/4
f 200/270/4 201/287/4 192/288/4
f 200/270/4 192/288/4 193/289/4
f 200/270/4 193/289/4 202/290/4
f 200/270/4 202/290/4 184/291/4
f 200/270/4 184/291/4 185/292/4
f 200/270/4 185/292/4 186/293/4
f 163/294/4 171/295/4 177/296/4
f 163/294/4 177/296/4 167/297/4
f 163/294/4 167/297/4 166/298/4
f 163/294/4 166/298/4 197/299/4
f 163/294/4 197/299/4 195/300/4
f 163/294/4 195/300/4 203/253/4
f 163/294/4 203/253/4 198/269/4
f 163/294/4 198/269/4 180/301/4
f 163/294/4 180/301/4 188/302/4
f 163/294/4 188/302/4 205/268/4
f 163/294/4 205/268/4 210/267/4
f 163/294/4 210/267/4 187/303/4
f 163/294/4 187/303/4 220/275/4
f 163/294/4 220/275/4 222/274/4
f 163/294/4 222/274/4 189/272/4
f 163/294/4 189/272/4 191/271/4
f 163/294/4 191/271/4 190/304/4
f 163/294/4 190/304/4 176/305/4
f 163/294/4 176/305/4 182/306/4
f 163/294/4 182/306/4 196/307/4
f 163/294/4 196/307/4 181/308/4
f 163/294/4 181/308/4 178/309/4
f 163/294/4 178/309/4 174/310/4
f 163/294/4 174/310/4 172/311/4
f 163/294/4 172/311/4 179/312/4
f 165/313/4 164/314/4 172/311/4
f 165/313/4 172/311/4 174/310/4
f 165/313/4 174/310/4 175/315/4
f 165/313/4 175/315/4 178/309/4
f 165/313/4 178/309/4 181/308/4
f 165/313/4 181/308/4 182/306/4
f 165/313/4 182/306/4 176/305/4
f 165/313/4 176/305/4 183/316/4
f 165/313/4 183/316/4 190/304/4
f 165/313/4 190/304/4 191/271/4
f 165/313/4 191/271/4 199/317/4
f 165/313/4 199/317/4 185/292/4
f 165/313/4 185/292/4 184/291/4
f 165/313/4 184/291/4 193/289/4
f 165/313/4 193/289/4 192/288/4
f 165/313/4 192/288/4 227/286/4
f 165/313/4 227/286/4 228/285/4
f 165/313/4 228/285/4 194/318/4
f 165/313/4 194/318/4 214/284/4
f 165/313/4 214/284/4 213/283/4
f 165/313/4 213/283/4 229/319/4
f 165/313/4 229/319/4 230/320/4
f 165/313/4 230/320/4 215/321/4
f 165/313/4 215/321/4 231/322/4
f 165/313/4 231/322/4 2/323/4
f 165/313/4 2/323/4 18/324/4
f 165/313/4 18/324/4 291/325/4
f 165/313/4 291/325/4 17/326/4
f 165/313/4 17/326/4 16/327/4
f 165/313/4 16/327/4 293/242/4
f 165/313/4 293/242/4 292/241/4
f 165/313/4 292/241/4 290/238/4
f 165/313/4 290/238/4 286/237/4
f 165/313/4 286/237/4 269/235/4
f 165/313/4 269/235/4 267/234/4
f 165/313/4 267/234/4 261/231/4
f 165/313/4 261/231/4 253/230/4
f 165/313/4 253/230/4 275/328/4
f 165/313/4 275/328/4 265/329/4
f 165/313/4 265/329/4 264/330/4
f 165/313/4 264/330/4 270/202/4
f 165/313/4 270/202/4 271/199/4
f 165/313/4 271/199/4 268/198/4
f 165/313/4 268/198/4 289/331/4
f 165/313/4 289/331/4 294/197/4
f 165/313/4 294/197/4 276/196/4
f 165/313/4 276/196/4 277/217/4
f 165/313/4 277/217/4 274/215/4
f 165/313/4 274/215/4 272/214/4
f 165/313/4 272/214/4 243/212/4
f 165/313/4 243/212/4 240/211/4
f 165/313/4 240/211/4 273/332/4
f 165/313/4 273/332/4 248/333/4
f 165/313/4 248/333/4 241/334/4
f 165/313/4 241/334/4 239/335/4
f 165/313/4 239/335/4 249/336/4
f 165/313/4 249/336/4 238/337/4
f 165/313/4 238/337/4 237/338/4
f 165/313/4 237/338/4 250/339/4
f 165/313/4 250/339/4 236/340/4
f 165/313/4 236/340/4 7/341/4
f 165/313/4 7/341/4 162/342/4
f 165/313/4 162/342/4 173/343/4
f 230/344/5 229/345/5 86/346/5 87/347/5
f 88/348/5 4/349/5 2/350/5 231/351/5
f 221/352/5 220/353/5 80/354/5 82/355/5
f 226/356/5 225/357/5 73/358/5 74/359/5
f 224/360/5 223/361/5 83/362/5 84/363/5
f 232/364/5 219/365/5 79/366/5 89/367/5
f 218/368/5 217/369/5 77/370/5 78/371/5
f 216/372/5 8/373/5 6/374/5 76/375/5
f 101/376/6 245/377/6 244/378/6 102/379/6
f 103/380/6 246/381/6 263/382/6 161/383/6
f 120/384/6 264/385/6 265/386/6 121/387/6
f 95/388/6 237/389/6 238/390/6 96/391/6
f 5/392/6 7/393/6 236/394/6 93/395/6
f 97/396/6 239/397/6 241/398/6 160/399/6
f 233/400/6 1/401/6 3/402/6 92/403/6
f 91/404/6 235/405/6 234/406/6 90/407/6
f 122/408/6 266/409/6 247/410/6 104/411/6
f 99/412/6 240/413/6 242/414/6 98/415/6
f 149/2/7 152/416/7 209/417/7 169/3/7
f 209/3/8 152/2/8 151/418/8 168/419/8
f 216/3/9 76/2/9 63/420/9 207/421/9
f 63/2/3 77/422/3 217/423/3 207/3/3
f 78/2/1 61/424/1 208/425/1 218/3/1
f 221/3/10 82/2/10 65/426/10 212/427/10
f 65/2/3 83/428/3 223/429/3 212/3/3
f 84/2/11 66/430/11 211/431/11 224/3/11
f 211/3/12 66/2/12 73/432/12 225/433/12
f 226/3/13 74/2/13 67/434/13 213/435/13
f 67/2/3 86/436/3 229/437/3 213/3/3
f 13/438/10 295/3/10 36/2/10 23/439/10
f 282/3/1 40/2/1 36/440/1 295/441/1
f 24/2/14 40/442/14 282/443/14 14/3/14
f 215/3/15 68/2/15 88/444/15 231/445/15
f 87/2/1 68/446/1 215/447/1 230/3/1
f 17/448/16 291/3/16 71/2/16 27/449/16
f 28/2/17 71/450/17 291/451/17 18/3/17
f 235/3/3 91/2/3 106/452/3 252/453/3
f 252/3/18 106/2/18 104/454/18 247/455/18
f 92/2/19 105/456/19 251/457/19 233/3/19
f 251/3/1 105/2/1 90/458/1 234/459/1
f 10/460/20 256/3/20 29/2/20 19/461/20
f 245/3/3 101/2/3 110/462/3 254/463/3
f 103/2/21 111/464/21 255/465/21 246/3/21
f 255/3/1 111/2/1 102/466/1 244/467/1
f 94/2/15 114/468/15 173/469/15 162/3/15
f 173/3/22 114/2/22 127/416/22 165/417/22
f 237/3/3 95/2/3 108/470/3 250/471/3
f 250/3/23 108/2/23 93/472/23 236/473/23
f 97/2/24 109/474/24 249/475/24 239/3/24
f 249/3/1 109/2/1 96/476/1 238/477/1
f 136/2/25 141/478/25 177/479/25 171/3/25
f 177/3/26 141/2/26 155/480/26 167/481/26
f 128/2/27 112/482/27 172/483/27 164/3/27
f 112/2/3 133/484/3 179/485/3 172/3/3
f 179/3/28 133/2/28 137/486/28 163/487/28
f 174/3/29 113/2/29 124/488/29 175/489/29
f 175/3/30 124/2/30 142/490/30 178/491/30
f 178/3/1 142/2/1 113/492/1 174/493/1
f 248/3/31 118/2/31 160/494/31 241/495/31
f 240/3/3 99/2/3 129/496/3 273/497/3
f 273/3/32 129/2/32 118/498/32 248/499/32
f 181/3/33 143/2/33 138/500/33 182/501/33
f 138/2/34 146/502/34 196/503/34 182/3/34
f 196/3/23 146/2/23 143/504/23 181/505/23
f 243/3/35 100/2/35 119/506/35 260/507/35
f 260/3/36 119/2/36 123/508/36 272/509/36
f 272/3/1 123/2/1 100/510/1 243/511/1
f 274/3/20 126/2/20 115/512/20 258/513/20
f 115/2/3 159/514/3 277/515/3 258/3/3
f 277/3/17 159/2/17 126/516/17 274/517/17
f 259/3/37 116/2/37 130/518/37 271/519/37
f 278/3/1 134/2/1 116/520/1 259/521/1
f 271/3/38 130/2/38 135/522/38 276/523/38
f 276/3/1 135/2/1 134/524/1 278/525/1
f 257/3/10 117/2/10 161/526/10 263/527/10
f 264/3/3 120/2/3 131/528/3 270/529/3
f 270/3/32 131/2/32 117/530/32 257/531/32
f 294/3/33 39/2/33 32/532/33 268/533/33
f 32/2/3 48/534/3 289/535/3 268/3/3
f 289/3/39 48/2/39 39/536/39 294/537/39
f 266/3/40 122/2/40 107/538/40 253/539/40
f 253/3/41 107/2/41 132/540/41 275/541/41
f 275/3/1 132/2/1 121/542/1 265/543/1
f 267/3/10 33/2/10 30/544/10 261/545/10
f 283/3/42 57/2/42 33/546/42 267/547/42
f 30/2/3 35/548/3 279/549/3 261/3/3
f 279/3/43 35/2/43 57/550/43 283/551/43
f 11/552/44 262/3/44 31/2/44 21/553/44
f 280/3/1 34/2/1 31/554/1 262/555/1
f 22/2/45 37/556/45 281/557/45 12/3/45
f 281/3/1 37/2/1 34/558/1 280/559/1
f 156/2/46 139/560/46 197/561/46 166/3/46
f 204/3/47 154/2/47 150/482/47 170/483/47
f 139/2/3 144/562/3 157/563/3
f 139/2/3 157/563/3 195/564/3
f 139/2/3 195/564/3 197/3/3
f 157/2/3 154/565/3 204/566/3
f 157/2/3 204/566/3 203/567/3
f 157/2/3 203/567/3 195/3/3
f 180/3/29 140/2/29 148/568/29 188/569/29
f 188/3/30 148/2/30 153/570/30 205/571/30
f 205/3/1 153/2/1 145/572/1
f 205/3/1 145/572/1 140/573/1
f 205/3/1 140/573/1 180/574/1
f 205/3/1 180/574/1 198/575/1
f 210/3/20 62/2/20 51/576/20 187/577/20
f 51/2/3 80/578/3 220/579/3 187/3/3
f 89/2/48 62/580/48 210/581/48 232/3/48
f 189/3/29 52/2/29 72/582/29 206/583/29
f 206/3/36 72/2/36 81/584/36 222/585/36
f 222/3/1 81/2/1 52/586/1 189/587/1
f 176/3/49 125/2/49 158/588/49 183/589/49
f 183/3/24 158/2/24 147/590/24 190/591/24
f 190/3/1 147/2/1 125/592/1 176/593/1
f 191/3/50 53/2/50 44/594/50 199/595/50
f 200/3/17 58/2/17 53/512/17 191/513/17
f 44/2/3 43/596/3 186/597/3
f 44/2/3 186/597/3 185/598/3
f 44/2/3 185/598/3 199/3/3
f 43/2/3 58/599/3 200/600/3 186/3/3
f 184/3/35 45/2/35 54/601/35 193/602/35
f 193/3/51 54/2/51 59/603/51 202/604/51
f 202/3/1 59/2/1 45/605/1 184/606/1
f 201/3/10 64/2/10 55/607/10 192/608/10
f 55/2/3 75/609/3 227/610/3 192/3/3
f 227/3/32 75/2/32 64/611/32 201/612/32
f 269/3/52 38/2/52 47/613/52 284/614/52
f 284/3/36 47/2/36 50/615/36 286/616/36
f 286/3/1 50/2/1 38/617/1 269/618/1
f 194/3/15 56/2/15 69/619/15 214/620/15
f 214/3/53 69/2/53 85/621/53 228/622/53
f 228/3/1 85/2/1 56/623/1 194/624/1
f 290/3/10 49/2/10 46/625/10 285/626/10
f 292/3/54 60/2/54 49/627/54 290/628/54
f 285/3/55 46/2/55 41/629/55 288/630/55
f 41/2/3 60/631/3 292/632/3 288/3/3
f 15/633/56 287/3/56 42/2/56 25/634/56
f 26/2/57 70/635/57 293/636/57 16/3/57
f 293/3/1 70/2/1 42/637/1 287/638/1
f 208/3/58 61/2/58 79/639/58 219/640/58
f 20/2/59 29/641/59 256/642/59 9/3/59
f 254/3/17 110/2/17 98/643/17 242/644/17
o piece_01
s 0
usemtl initialShadingGroup
f 296/645/60 297/646/60 300/647/60 299/648/60
f 297/649/61 296/650/61 298/651/61 301/652/61
f 299/653/62 298/654/62 296/655/62
f 300/656/63 301/657/63 298/658/63 299/659/63
f 297/660/64 301/661/64 300/662/64
o piece_02
s 0
usemtl initialShadingGroup
f 305/663/65 302/664/65 303/665/65 306/666/65
f 303/667/66 302/668/66 304/669/66 309/670/66
f 307/671/67 304/672/67 302/673/67 305/674/67
f 305/664/68 306/665/68 308/675/68 307/676/68
f 309/677/69 304/678/69 307/679/69 308/680/69
f 306/681/70 303/682/70 309/683/70 308/684/70
o piece_03
s 0
usemtl initialShadingGroup
f 315/685/71 313/686/71 310/687/71 311/688/71
f 311/689/72 310/690/72 312/691/72 317/692/72
f 312/693/73 310/694/73 313/695/73 314/696/73
f 313/687/74 315/688/74 316/697/74 314/698/74
f 317/699/75 316/700/75 315/701/75 311/702/75
f 317/703/76 312/704/76 314/705/76 316/706/76
o piece_04
s 0
usemtl initialShadingGroup
f 321/707/77 318/708/77 319/709/77 322/710/77
f 319/711/78 318/712/78 320/713/78 327/714/78
f 320/715/79 318/716/79 321/717/79
f 320/715/79 321/717/79 323/718/79
f 320/715/79 323/718/79 324/719/79
f 325/720/77 323/721/77 321/708/77 322/709/77
f 323/708/80 325/709/80 326/722/80 324/723/80
f 325/724/81 322/725/81 319/726/81
f 325/724/81 319/726/81 327/727/81
f 325/724/81 327/727/81 326/728/81
f 326/729/82 327/730/82 320/731/82 324/732/82
o piece_05
s 0
usemtl initialShadingGroup
f 332/733/83 331/734/83 328/735/83 329/736/83
f 329/737/84 328/738/84 330/739/84 333/740/84
f 330/741/85 328/742/85 331/743/85
f 333/744/86 330/745/86 331/746/86 332/747/86
f 329/748/87 333/749/87 332/750/87
o piece_06
s 0
usemtl initialShadingGroup
f 335/751/88 334/752/88 337/753/88
f 335/754/89 339/755/89 336/756/89 334/757/89
f 337/758/90 334/759/90 336/760/90 338/761/90
f 339/762/91 335/763/91 337/754/91 338/755/91
f 338/764/92 336/765/92 339/766/92
o piece_07
s 0
usemtl initialShadingGroup
f 344/767/93 343/768/93 340/769/93 341/770/93
f 340/771/94 342/769/94 347/770/94 341/772/94
f 342/773/95 340/774/95 343/775/95 345/776/95
f 346/777/96 345/778/96 343/769/96 344/770/96
f 345/769/97 346/770/97 347/779/97 342/780/97
f 344/781/98 341/782/98 347/783/98 346/784/98
o piece_08
s 0
usemtl initialShadingGroup
f 352/785/99 351/786/99 348/787/99 349/788/99
f 348/789/100 350/787/100 355/788/100 349/790/100
f 353/791/101 350/792/101 348/793/101 351/794/101
f 354/795/102 353/796/102 351/787/102 352/788/102
f 355/797/103 350/798/103 353/787/103 354/788/103
f 349/799/104 355/800/104 354/801/104 352/802/104
o piece_09
s 0
usemtl initialShadingGroup
f 359/803/105 356/804/105 357/805/105
f 356/806/106 358/807/106 361/808/106 357/809/106
f 360/810/107 358/811/107 356/812/107 359/813/107
f 359/809/108 357/814/108 361/815/108 360/808/108
f 361/816/109 358/817/109 360/818/109
o piece_10
s 0
usemtl initialShadingGroup
f 363/819/110 362/820/110 365/821/110
f 363/822/111 367/823/111 364/824/111 362/825/111
f 362/826/112 364/827/112 366/828/112 365/829/112
f 366/823/113 367/830/113 363/831/113 365/822/113
f 366/832/114 364/833/114 367/834/114
o piece_12
s 0
usemtl initialShadingGroup
f 372/835/115 371/836/115 368/837/115 369/838/115
f 368/839/116 370/837/116 373/838/116 369/840/116
f 371/841/117 370/842/117 368/843/117
f 371/837/118 372/838/118 373/844/118 370/845/118
f 373/846/119 372/847/119 369/848/119
o piece_13
s 0
usemtl initialShadingGroup
f 377/849/120 374/850/120 375/851/120 378/852/120
f 374/853/121 376/854/121 381/855/121 375/856/121
f 379/857/122 376/858/122 374/859/122 377/860/122
f 378/861/123 380/862/123 379/855/123 377/856/123
f 380/863/124 381/864/124 376/865/124 379/866/124
f 380/855/125 378/856/125 375/867/125 381/868/125
o piece_14
s 0
usemtl initialShadingGroup
f 387/869/126 385/870/126 382/871/126 383/872/126
f 383/873/127 382/874/127 384/871/127 389/875/127
f 384/876/128 382/877/128 385/878/128 386/879/128
f 385/871/129 387/875/129 388/880/129 386/881/129
f 383/882/130 389/883/130 388/884/130 387/885/130
f 389/886/131 384/887/131 386/888/131 388/889/131
o piece_15
s 0
usemtl initialShadingGroup
f 394/890/132 393/891/132 390/892/132 391/893/132
f 390/894/133 392/892/133 395/895/133 391/896/133
f 392/897/134 390/898/134 393/899/134
f 393/892/135 394/895/135 395/900/135 392/901/135
f 391/902/136 395/903/136 394/904/136
o piece_16
s 0
usemtl initialShadingGroup
f 400/905/137 399/906/137 396/907/137 397/908/137
f 396/909/138 398/907/138 401/910/138 397/911/138
f 398/912/139 396/913/139 399/914/139
f 399/907/140 400/910/140 401/915/140 398/916/140
f 397/917/141 401/918/141 400/919/141
o piece_17
s 0
usemtl initialShadingGroup
f 406/920/142 405/921/142 402/922/142 403/923/142
f 402/924/143 404/922/143 407/923/143 403/925/143
f 405/926/144 404/927/144 402/928/144
f 405/922/145 406/929/145 407/930/145 404/931/145
f 407/932/146 406/933/146 403/934/146
o piece_18
s 0
usemtl initialShadingGroup
f 411/935/147 408/936/147 409/937/147
f 408/938/148 410/939/148 413/940/148 409/941/148
f 412/942/149 410/943/149 408/944/149 411/945/149
f 409/946/150 413/947/150 412/940/150 411/941/150
f 413/948/151 410/949/151 412/950/151
o piece_19
s 0
usemtl initialShadingGroup
f 415/951/152 414/952/152 417/953/152
f 415/954/153 419/955/153 416/956/153 414/957/153
f 417/958/154 414/959/154 416/960/154 418/961/154
f 419/962/155 415/963/155 417/954/155 418/964/155
f 418/965/156 416/966/156 419/967/156
o piece_20
s 0
usemtl initialShadingGroup
f 423/968/157 420/969/157 421/970/157 424/971/157
f 420/972/158 422/969/158 427/970/158 421/973/158
f 422/974/159 420/975/159 423/976/159 425/977/159
f 426/978/157 425/979/157 423/969/157 424/970/157
f 425/969/160 426/980/160 427/981/160 422/982/160
f 424/983/161 421/984/161 427/985/161 426/986/161
o piece_21
s 0
usemtl initialShadingGroup
f 432/987/162 431/988/162 428/989/162 429/990/162
f 428/991/163 430/992/163 435/990/163 429/993/163
f 430/994/164 428/995/164 431/996/164 433/997/164
f 434/998/165 433/999/165 431/989/165 432/990/165
f 433/989/165 434/990/165 435/1000/165 430/1001/165
f 429/1002/166 435/1003/166 434/1004/166 432/1005/166
o piece_22
s 0
usemtl initialShadingGroup
f 437/1006/167 436/1007/167 439/1008/167
f 437/1009/168 441/1010/168 438/1011/168 436/1012/168
f 439/1013/169 436/1014/169 438/1015/169 440/1016/169
f 440/1010/170 441/1017/170 437/1018/170 439/1009/170
f 440/1019/171 438/1020/171 441/1021/171
o piece_23
s 0
usemtl initialShadingGroup
f 445/1022/172 442/1023/172 443/1024/172
f 442/1025/173 444/1026/173 447/1027/173 443/1028/173
f 446/1029/174 444/1030/174 442/1031/174 445/1032/174
f 445/1028/175 443/1033/175 447/1034/175 446/1035/175
f 447/1036/176 444/1037/176 446/1038/176
o piece_24
s 0
usemtl initialShadingGroup
f 452/1039/177 451/1040/177 448/1041/177 449/1042/177
f 448/1040/178 450/1043/178 453/1042/178 449/1039/178
f 450/1044/179 448/1045/179 451/1046/179
f 451/1041/180 452/1042/180 453/1047/180 450/1048/180
f 449/1049/181 453/1050/181 452/1051/181
o piece_25
s 0
usemtl initialShadingGroup
f 458/1052/182 457/1053/182 454/1054/182 455/1055/182
f 454/1056/183 456/1057/183 459/1055/183 455/1058/183
f 457/1059/184 456/1060/184 454/1061/184
f 457/1054/185 458/1055/185 459/1062/185 456/1063/185
f 459/1064/186 458/1065/186 455/1066/186
o piece_26
s 0
usemtl initialShadingGroup
f 464/1067/187 463/1068/187 460/1069/187 461/1070/187
f 460/1071/188 462/1072/188 465/1070/188 461/1073/188
f 463/1074/189 462/1075/189 460/1076/189
f 463/1069/190 464/1070/190 465/1077/190 462/1078/190
f 465/1079/191 464/1080/191 461/1081/191
o piece_27
s 0
usemtl initialShadingGroup
f 470/1082/192 469/1083/192 466/1084/192 467/1085/192
f 466/1086/193 468/1087/193 471/1085/193 467/1088/193
f 469/1089/194 468/1090/194 466/1091/194
f 469/1084/195 470/1085/195 471/1092/195 468/1093/195
f 471/1094/196 470/1095/196 467/1096/196
o piece_28
s 0
usemtl initialShadingGroup
f 472/1097/197 473/1098/197 476/1099/197 475/1100/197
f 472/1101/198 474/1097/198 479/1098/198 473/1102/198
f 477/1103/199 474/1104/199 472/1105/199 475/1106/199
f 478/1107/200 477/1108/200 475/1109/200 476/1110/200
f 478/1098/201 479/1111/201 474/1112/201 477/1097/201
f 473/1113/202 479/1114/202 478/1115/202 476/1116/202
o piece_29
s 0
usemtl initialShadingGroup
f 485/1117/203 483/1118/203 480/1119/203 481/1120/203
f 481/1121/204 480/1122/204 482/1119/204 487/1120/204
f 482/1123/205 480/1124/205 483/1125/205 484/1126/205
f 483/1119/206 485/1120/206 486/1127/206 484/1128/206
f 481/1129/207 487/1130/207 486/1131/207 485/1132/207
f 487/1133/208 482/1134/208 484/1135/208 486/1136/208
o piece_30
s 0
usemtl initialShadingGroup
f 492/1137/209 491/1138/209 488/1139/209 489/1140/209
f 488/1141/210 490/1139/210 493/1140/210 489/1142/210
f 490/1143/211 488/1144/211 491/1145/211
f 491/1139/212 492/1140/212 493/1146/212 490/1147/212
f 489/1148/213 493/1149/213 492/1150/213
o piece_31
s 0
usemtl initialShadingGroup
f 498/1151/214 497/1152/214 494/1153/214 495/1154/214
f 494/1155/215 496/1153/215 499/1154/215 495/1156/215
f 497/1157/216 496/1158/216 494/1159/216
f 497/1153/217 498/1154/217 499/1160/217 496/1161/217
f 499/1162/218 498/1163/218 495/1164/218
o piece_32
s 0
usemtl initialShadingGroup
f 504/1165/219 503/1166/219 500/1167/219 501/1168/219
f 500/1169/220 502/1167/220 505/1168/220 501/1170/220
f 503/1171/221 502/1172/221 500/1173/221
f 503/1167/222 504/1168/222 505/1174/222 502/1175/222
f 501/1176/223 505/1177/223 504/1178/223
o piece_34
s 0
usemtl initialShadingGroup
f 507/1179/224 506/1180/224 509/1181/224
f 507/1182/225 511/1183/225 508/1184/225 506/1185/225
f 509/1186/226 506/1187/226 508/1188/226 510/1189/226
f 511/1190/227 507/1191/227 509/1182/227 510/1183/227
f 510/1192/228 508/1193/228 511/1194/228
o piece_35
s 0
usemtl initialShadingGroup
f 513/1195/229 512/1196/229 515/1197/229
f 513/1198/230 517/1199/230 514/1200/230 512/1201/230
f 515/1202/231 512/1203/231 514/1204/231 516/1205/231
f 516/1206/232 517/1207/232 513/1208/232 515/1209/232
f 516/1210/233 514/1211/233 517/1212/233
o piece_37
s 0
usemtl initialShadingGroup
f 521/1213/234 518/1214/234 519/1215/234
f 521/1213/234 519/1215/234 525/1216/234
f 521/1213/234 525/1216/234 523/1217/234
f 518/1218/235 520/1219/235 527/1220/235 519/1221/235
f 520/1222/236 518/1223/236 521/1224/236 522/1225/236
f 521/1226/237 523/1227/237 524/1228/237 522/1229/237
f 525/1230/238 526/1231/238 524/1220/238 523/1221/238
f 526/1220/238 525/1221/238 519/1232/238 527/1233/238
f 527/1234/239 520/1235/239 522/1236/239
f 527/1234/239 522/1236/239 524/1237/239
f 527/1234/239 524/1237/239 526/1238/239
o piece_38
s 0
usemtl initialShadingGroup
f 531/1239/240 528/1240/240 529/1241/240 533/1242/240
f 528/1243/241 530/1244/241 535/1245/241 529/1246/241
f 532/1247/242 530/1248/242 528/1249/242 531/1250/242
f 531/1251/243 533/1252/243 534/1253/243 532/1254/243
f 534/1245/244 533/1246/244 529/1255/244 535/1256/244
f 535/1257/245 530/1258/245 532/1259/245 534/1260/245
o piece_39
s 0
usemtl initialShadingGroup
f 539/1261/246 536/1262/246 537/1263/246
f 536/1264/247 538/1265/247 541/1266/247 537/1267/247
f 540/1268/248 538/1269/248 536/1270/248 539/1271/248
f 539/1272/249 537/1273/249 541/1274/249 540/1275/249
f 541/1276/250 538/1277/250 540/1278/250
o piece_40
s 0
usemtl initialShadingGroup
f 545/1279/251 542/1280/251 543/1281/251
f 542/1282/252 544/1283/252 547/1284/252 543/1285/252
f 544/1286/253 542/1287/253 545/1288/253 546/1289/253
f 545/1290/254 543/1291/254 547/1292/254 546/1293/254
f 547/1294/255 544/1295/255 546/1296/255
o piece_41
s 0
usemtl initialShadingGroup
f 548/1297/256 549/1298/256 550/1299/256 551/1300/256
f 552/1301/257 551/1302/257 550/1303/257 553/1304/257
f 552/1305/258 548/1306/258 551/1307/258
f 553/1308/259 549/1309/259 548/1310/259 552/1311/259
f 550/1312/260 549/1313/260 553/1314/260
